<svg xmlns="http://www.w3.org/2000/svg" width="120" height="40" fill="none" xmlns:v="https://vecta.io/nano"><style><![CDATA[.B{fill-rule:evenodd}]]></style><g fill="#000"><rect width="120" height="40" rx="5"/><path d="M112.322 32.1093c0 2.4979-2.024 4.5236-4.522 4.5236H14.5232C12.0255 36.6331 10 34.6074 10 32.1093V7.68527c0-2.49764 2.0255-4.52316 4.5232-4.52316H107.8c2.497 0 4.522 2.02552 4.522 4.52316V32.1094h0v-.0001z"/></g><g fill="#fff"><path d="M33.6234 20.2998c-.0265-2.9385 2.4061-4.3681 2.5173-4.4347-1.3777-2.0085-3.513-2.2829-4.2633-2.3048-1.7934-.1888-3.533 1.0731-4.4465 1.0731-.9318 0-2.3386-1.0549-3.8549-1.0239-1.9511.0301-3.7764 1.1597-4.7775 2.914-2.066 3.5766-.5252 8.8328 1.4542 11.724.9902 1.4159 2.1472 2.9968 3.6616 2.9412 1.4815-.0611 2.0349-.9446 3.8229-.9446 1.7715 0 2.2912.9446 3.8356.9091 1.5901-.0256 2.5912-1.4224 3.5467-2.8511 1.1443-1.6229 1.6038-3.2211 1.622-3.3032-.0373-.0127-3.088-1.1772-3.1181-4.6991zm-2.9175-8.642c.7969-.9965 1.3421-2.35229 1.1908-3.72811-1.1534.05108-2.5958.79779-3.4264 1.77243-.7348.85888-1.3912 2.26658-1.2216 3.59038 1.2956.0967 2.6257-.6537 3.4572-1.6347z"/><path d="M49.1345 25.7219h-1.7389l-.9526-2.9931h-3.3107l-.9072 2.9931h-1.6929l3.2801-10.1897h2.0258l3.2964 10.1897zm-2.9785-4.2491l-.8614-2.6606c-.0911-.2719-.2619-.912-.5137-1.9196h-.0307l-.484 1.9196-.846 2.6606h2.7358zm11.4138.485c0 1.2497-.3376 2.2374-1.0134 2.9624-.6045.6455-1.3557.9679-2.2524.9679-.9676 0-1.6631-.3477-2.0862-1.0429h-.031v3.8706h-1.6324v-7.9225l-.0603-2.4188h1.4358l.0911 1.1646h.0305c.5444-.8775 1.3706-1.3155 2.4793-1.3155.8667 0 1.5905.3423 2.1692 1.0276s.8698 1.588.8698 2.7066h0zm-1.6631.0598c0-.7152-.1609-1.3047-.4841-1.7688-.3525-.4838-.8269-.7258-1.4209-.7258-.4031 0-.7688.1348-1.0959.4005s-.542.6179-.6421 1.0512c-.0508.2022-.076.3675-.076.4977v1.2252c0 .5344.1636.9853.4917 1.3537s.7535.552 1.2774.552c.6145 0 1.093-.2374 1.4353-.7105s.5146-1.0989.5146-1.8752zm10.1148-.0598c0 1.2497-.3379 2.2374-1.0142 2.9624-.604.6455-1.355.9679-2.2519.9679-.9678 0-1.6631-.3477-2.0855-1.0429h-.0307v3.8706h-1.6329v-7.9225l-.06-2.4188h1.436l.0904 1.1646h.0312c.543-.8775 1.3696-1.3155 2.479-1.3155.8657 0 1.5899.3423 2.1699 1.0276s.8687 1.588.8687 2.7066h0zm-1.6631.0598c0-.7152-.1616-1.3047-.4849-1.7688-.353-.4838-.8256-.7258-1.4204-.7258-.4033 0-.769.1348-1.0962.4005s-.5415.6179-.6421 1.0512c-.0498.2022-.0756.3675-.0756.4977v1.2252c0 .5344.1635.9853.4902 1.3537s.7534.552 1.2788.552c.6147 0 1.0928-.2374 1.4351-.7105s.5151-1.0989.5151-1.8752h0z" class="B"/><path d="M75.469 22.8643c0 .8667-.3008 1.5719-.9048 2.1163-.6641.5948-1.5884.892-2.7759.892-1.0964 0-1.9753-.2113-2.6408-.6347l.3784-1.3607c.7165.4334 1.5029.6509 2.3596.6509.615 0 1.0935-.1394 1.4373-.4166s.5131-.6492.5131-1.1133c0-.4134-.1408-.7618-.4233-1.0443s-.7505-.5452-1.406-.7879c-1.7839-.6654-2.6753-1.6401-2.6753-2.9219 0-.8376.3123-1.5244.938-2.0588s1.4548-.8025 2.4946-.8025c.9273 0 1.6975.1616 2.3123.4839l-.4082 1.3307c-.574-.3123-1.2234-.4686-1.95-.4686-.5744 0-1.0229.1417-1.3447.4235-.2717.2519-.408.559-.408.9226 0 .4028.1553.7358.4678.9977.2717.242.7659.5039 1.4824.7863.8767.353 1.5205.7657 1.9348 1.2389s.6187 1.0621.6187 1.7665h0zm5.3979-3.2646h-1.799v3.5673c0 .9073.3169 1.3606.9524 1.3606.2917 0 .5337-.0252.7253-.0758l.0452 1.2397c-.3218.1202-.7451.1807-1.2698.1807-.6445 0-1.1484-.1968-1.5122-.5896s-.5444-1.0535-.5444-1.9808v-3.7036h-1.0718v-1.2251h1.0718v-1.3453l1.6035-.4839v1.8292h1.799v1.2266h0z"/><path d="M88.9849 21.9869c0 1.1294-.3233 2.0567-.9678 2.7818-.6758.7464-1.5737 1.1186-2.6919 1.1186-1.0781 0-1.9365-.3575-2.5772-1.0727s-.9599-1.6178-.9599-2.706c0-1.1385.3296-2.071.9902-2.7961s1.5488-1.0889 2.6675-1.0889c1.0781 0 1.9458.3577 2.6001 1.0735.6265.6945.939 1.5911.939 2.6898h0zm-1.6939.053c0-.6776-.1445-1.2588-.4375-1.7434-.3428-.5865-.8315-.879-1.4653-.879-.6568 0-1.1548.2932-1.4971.879-.293.4854-.438 1.0757-.438 1.7741 0 .6776.145 1.2587.438 1.7426.353.5865.8457.8789 1.4824.8789.6236 0 1.1128-.2984 1.4659-.8941.3002-.494.4516-1.0812.4516-1.7581h0z" class="B"/><path d="M94.2915 19.8101c-.1621-.0299-.334-.0452-.5146-.0452-.5743 0-1.0186.2166-1.3306.6507-.272.3829-.4082.8668-.4082 1.451v3.8553h-1.6319l.0152-5.0336-.061-2.3131h1.4223l.0591 1.4057h.0454c.1724-.4832.4439-.8721.8159-1.1638.3638-.2625.7569-.3935 1.1802-.3935.1509 0 .2871.0107.4082.0298v1.5567h0z"/><path d="M101.592 21.7007c0 .2925-.019.539-.059.7404h-4.8977c.0195.726.2558 1.2811.7109 1.6639.4126.3422.9458.5137 1.6016.5137.7251 0 1.3862-.1156 1.9812-.3476l.256 1.1332c-.695.3032-1.5161.454-2.4628.454-1.1397 0-2.0342-.3353-2.6846-1.0053s-.9751-1.5696-.9751-2.6982c0-1.108.3027-2.0306.9082-2.7664.6343-.7856 1.4907-1.1784 2.5689-1.1784 1.059 0 1.8604.3928 2.4054 1.1784.43.624.647 1.3958.647 2.3123h0zm-1.556-.4234c.01-.4839-.0961-.9019-.3172-1.2549-.2828-.4541-.7168-.6807-1.3013-.6807-.5332 0-.9678.2213-1.2993.6654-.2715.3529-.4331.7763-.4829 1.2694h3.4007v.0008zm-56.3019-9.9751c0 .5834-.175 1.0225-.5244 1.3175-.3238.2721-.7836.4084-1.3794.4084-.2955 0-.5484-.0129-.76-.0387V9.80179c.2762-.04459.5736-.06741.8948-.06741.5674 0 .9952.12345 1.2838.37032.323.279.4852.678.4852 1.1975zm-.5478.0146c0-.3783-.1-.6682-.3004-.8705s-.4926-.3028-.8777-.3028c-.1636 0-.3028.0109-.4184.0337v2.4233c.0639.0099.1809.0144.3509.0144.3976 0 .7045-.1105.9206-.3317s.325-.5431.325-.9664h0zm3.4519.495c0 .3594-.1027.6538-.3078.8848-.2153.2374-.5003.3559-.8561.3559-.343 0-.6161-.1136-.8198-.3416s-.3049-.5144-.3049-.8604c0-.3619.1045-.6588.3148-.8893s.4926-.346.8485-.346c.3431 0 .6187.1136.8273.3411.1983.221.298.5066.298.8555zm-.5388.0169c0-.2156-.0468-.4005-.1393-.5547-.1091-.1864-.2643-.2796-.4661-.2796-.2085 0-.3673.0932-.4762.2796-.0933.1542-.1393.342-.1393.5641 0 .2156.0466.4005.1393.5547.1124.1863.2691.2795.4713.2795s.3539-.0947.4659-.2845c.0964-.1572.1444-.3435.1444-.5591h0z" class="B"/><path d="M50.532 10.6621l-.7312 2.3366h-.4759l-.3026-1.0146c-.077-.2533-.1395-.5051-.1883-.7549h-.0093c-.0448.2568-.1076.508-.1876.7549l-.3218 1.0146h-.4813l-.6875-2.3366h.534l.264 1.1108.1586.75h.0096c.0386-.1953.1023-.4441.1927-.745l.3317-1.1153h.4232l.3176 1.0915.1874.7693h.0143c.0355-.2405.0882-.4967.1587-.7693l.2834-1.0915h.5103v-.0005zm2.693 2.3359h-.5196v-1.3384c0-.4123-.1567-.6185-.4709-.6185-.1541 0-.2783.0565-.3753.17s-.144.2473-.144.4005v1.3859h-.5196v-1.6684l-.0188-.6687h.4564l.0243.3653h.0143c.0609-.1135.1508-.2072.2694-.282.1406-.0873.2984-.1314.4706-.1314.2184 0 .3998.0704.5438.2117.1795.173.2694.4312.2694.7742v1.3998h0zm1.4327.0006h-.519V9.58984h.519v3.40876h0z"/><path d="M57.7153 11.8118c0 .3594-.1025.6538-.3077.8848-.2152.2374-.5007.3559-.8563.3559-.3432 0-.6162-.1136-.8197-.3416s-.3048-.5144-.3048-.8604c0-.3619.1048-.6588.3147-.8893s.4928-.346.8482-.346c.3434 0 .6187.1136.8278.3411.1984.221.2978.5066.2978.8555zm-.5396.0169c0-.2156-.0465-.4005-.1392-.5547-.1085-.1864-.2643-.2796-.4652-.2796-.2094 0-.368.0932-.4765.2796-.0933.1542-.1392.342-.1392.5641 0 .2156.0465.4005.1392.5547.1124.1863.2691.2795.4714.2795s.3534-.0947.4652-.2845c.097-.1572.1443-.3435.1443-.5591h0zm3.0542 1.1707h-.4664l-.0389-.2691h-.0143c-.1592.2146-.3869.3221-.6822.3221-.2206 0-.3993-.0708-.5334-.2116-.122-.1279-.1832-.287-.1832-.4758 0-.2855.1189-.5032.3584-.6538s.5751-.2246 1.008-.2211v-.0436c0-.3078-.1618-.4615-.4855-.4615-.2305 0-.434.058-.6092.173l-.1054-.341c.2169-.1343.4852-.2018.8016-.2018.6104 0 .9166.3222.9166.9666v.8605c.0003.2335.0116.4193.0339.5571h0zm-.5394-.8028v-.3603c-.5726-.0099-.8592.1472-.8592.4709 0 .1219.033.2131.0998.274s.1522.0913.2536.0913c.1141 0 .2206-.0362.3178-.1081s.1573-.164.1798-.2766c.0051-.0252.0082-.056.0082-.0912h0zm3.4902.802h-.4609l-.0246-.3753h-.0141c-.1476.2855-.3984.4283-.7506.4283-.2818 0-.5162-.1106-.7019-.3316s-.2784-.5081-.2784-.8605c0-.3782.1006-.6846.3026-.9185.1959-.2181.4357-.3271.7214-.3271.3136 0 .5331.1056.6582.3172h.0099V9.58984h.5198V12.369l.0186.6296h0zm-.5384-.9854v-.3896c0-.0674-.0051-.1219-.0144-.1636-.029-.1249-.0919-.2299-.1877-.3147s-.2133-.1274-.3477-.1274c-.1936 0-.3454.0768-.4567.231s-.1666.3509-.1666.5913c0 .231.053.4184.1595.5626.1124.1536.264.2304.454.2304.1707 0 .3068-.0639.4105-.1923.1-.1184.1491-.2612.1491-.4277h0zm4.9813-.2014c0 .3594-.1026.6538-.308.8848-.215.2374-.4996.3559-.8558.3559-.3429 0-.616-.1136-.82-.3416s-.3048-.5144-.3048-.8604c0-.3619.1042-.6588.3147-.8893s.4926-.346.849-.346c.3426 0 .6188.1136.8267.3411.1984.221.2982.5066.2982.8555zm-.5382.0169c0-.2156-.0468-.4005-.1395-.5547-.1093-.1864-.2643-.2796-.4663-.2796-.2083 0-.3669.0932-.4762.2796-.0933.1542-.1395.342-.1395.5641 0 .2156.0465.4005.1395.5547.1124.1863.2691.2795.4711.2795s.3545-.0947.4663-.2845c.0959-.1572.1446-.3435.1446-.5591h0z" class="B"/><path d="M70.4168 12.998h-.519v-1.3384c0-.4123-.1564-.6185-.4714-.6185-.1539 0-.2784.0565-.3745.17s-.1443.2473-.1443.4005v1.3859h-.5201v-1.6684l-.0184-.6687h.4562l.0243.3653h.0143c.0612-.1135.1514-.2072.2691-.282.1415-.0873.2984-.1314.4714-.1314.2176 0 .399.0704.5433.2117.1798.173.2691.4312.2691.7742v1.3998h0zm3.4964-1.9469h-.572v1.135c0 .2886.1017.4328.3029.4328.0933 0 .1702-.008.2313-.0243l.0136.394c-.1026.0387-.2376.058-.4035.058-.2052 0-.3649-.0624-.4805-.1873s-.1735-.3351-.1735-.63v-1.1782h-.3413v-.3891h.3413v-.4282l.5091-.1537v.5814h.572v.3896h.0006zm2.7509 1.9474h-.5201v-1.3284c0-.4188-.1567-.6285-.4706-.6285-.2406 0-.4052.1214-.4954.3643-.0152.0511-.0242.1136-.0242.1869v1.4052h-.519V9.58984h.519V10.998h.0101c.1635-.2563.3979-.3841.7017-.3841.2152 0 .3928.0703.5342.2116.1758.176.2643.4376.2643.7837v1.3893h0z"/><path d="M79.5001 11.7192c0 .0932-.0068.1714-.0192.2354h-1.5576c.0067.231.0811.4069.2254.5289.1319.109.3021.1636.51.1636.2305 0 .4407-.0367.6301-.1105l.0811.3608c-.2214.0962-.4824.1442-.7844.1442-.3613 0-.6464-.1065-.8527-.3197s-.3099-.4991-.3099-.858c0-.3524.0958-.6458.2885-.8798.2012-.2498.4734-.3747.8171-.3747.3359 0 .5912.1249.7637.3747.1392.1983.2079.4436.2079.7351h0zm-.4954-.1346c.004-.1542-.0304-.287-.1008-.3991-.0902-.1442-.2277-.2166-.4137-.2166-.169 0-.3077.0704-.4131.2117-.0862.1125-.1369.2468-.1538.404h1.0814z" class="B"/></g></svg>