<svg xmlns="http://www.w3.org/2000/svg" width="120" height="40" fill="none" xmlns:v="https://vecta.io/nano"><g fill="#000"><rect width="120" height="40" rx="5"/><path d="M113.921 37.0439H8.07842c-2.32747 0-4.23369-1.884-4.23369-4.1844V7.75281c0-2.3004 1.90622-4.18445 4.23369-4.18445H113.921c2.327 0 4.234 1.88405 4.234 4.18445V32.8595c0 2.3004-1.907 4.1844-4.234 4.1844z"/></g><g fill="#fff"><path d="M43.9949 12.141c0 .6989-.2117 1.2585-.6288 1.6759-.4805.4948-1.1049.7438-1.8691.7438-.7314 0-1.3559-.2532-1.8681-.7521-.5134-.5064-.7695-1.1278-.7695-1.8705s.2561-1.3652.7695-1.8673 1.1367-.75635 1.8681-.75635c.3641 0 .7112.07428 1.0425.21236s.5991.32639.7938.55969l-.4424.4414c-.3397-.3964-.8023-.59206-1.3939-.59206-.5335 0-.996.18516-1.3897.55546-.3885.3724-.5832.8547-.5832 1.4468s.1947 1.0785.5832 1.4499.8552.5555 1.3897.5555c.5662 0 1.0425-.1883 1.4183-.5597.2476-.2458.3884-.5847.4254-1.0178H41.497v-.6036h2.4597c.0297.1297.0382.2563.0382.3786zm3.9023-2.0971h-2.3106v1.5901h2.0841v.6046h-2.0841v1.5901h2.3106v.6162h-2.9636V9.42773h2.9636v.61617zm2.7542 4.401h-.6541v-4.402h-1.4172v-.61517h3.4896v.61517h-1.4183v4.402zm3.9433 0V9.42773h.652v5.01717h-.652zm3.5479 0h-.6488v-4.402h-1.4225v-.61517h3.4938v.61517h-1.4225v4.402h0z" stroke="#fff" stroke-width=".199309"/><path fill-rule="evenodd" d="M66.1712 13.8003c-.5006.5073-1.1208.7605-1.8607.7605s-1.3643-.2532-1.8649-.7605-.7483-1.1278-.7483-1.8632.2487-1.3568.7483-1.8631 1.1208-.76052 1.8649-.76052c.7356 0 1.3559.25316 1.8565.76472s.7525 1.1277.7525 1.8589-.2487 1.3568-.7483 1.8632h0zm-3.2419-.4206c.3768.3766.8351.5639 1.3812.5639s1.0045-.1883 1.377-.5639.5663-.8578.5663-1.4415-.1905-1.0671-.5663-1.4426-.8351-.56387-1.377-.56387-1.0044.18937-1.3812.56387-.5663.8578-.5663 1.4426.1905 1.066.5663 1.4415z"/><path d="M62.4456 13.8003l-.071.0699h0l.071-.0699zm0-3.7263l-.071-.07h0l.071.07zm3.7214.0042l-.0712.0697.0002.0002.071-.0699zm.7525 1.8589h-.0996 0 .0996zm-3.9902 1.4426l.0704-.0705h0l-.0704.0705zm2.7582 0l-.0704-.0705-.0003.0003.0707.0702zm0-2.8841l-.0707.0702.0003.0003.0704-.0705zm-2.7582 0l-.0703-.0707-.0002.0002.0705.0705zm-.5663 1.4426h-.0996 0 .0996zm3.7373 1.7921c-.4811.4875-1.0754.7308-1.7898.7308v.1993c.7653 0 1.4115-.263 1.9317-.7902l-.1419-.1399zm-1.7898.7308c-.7187 0-1.313-.2433-1.794-.7308l-.1419.1399c.5203.5273 1.1664.7902 1.9359.7902v-.1993zm-1.794-.7308c-.4804-.4869-.7196-1.0828-.7196-1.7932h-.1993c0 .7605.2583 1.4074.777 1.9331l.1419-.1399zm-.7196-1.7932c0-.7103.2392-1.3062.7196-1.7931l-.1419-.14c-.5187.5258-.777 1.1726-.777 1.9331h.1993zm.7196-1.7931c.481-.4875 1.0753-.73087 1.794-.73087v-.19931c-.7694 0-1.4156.26296-1.9359.79018l.1419.14zm1.794-.73087c.71 0 1.3042.2432 1.7853.73477l.1424-.1394c-.5202-.53156-1.1665-.79468-1.9277-.79468v.19931zm1.7855.73497c.484.4914.7239 1.0833.7239 1.789h.1993c0-.7568-.2597-1.3993-.7812-1.9288l-.142.1398zm.7239 1.789c0 .7104-.2392 1.3063-.7196 1.7932l.1419.1399c.5187-.5257.777-1.1726.777-1.9331h-.1993zm-3.9611 1.5131c.396.3958.8799.593 1.4517.593v-.1993c-.5204 0-.9532-.1772-1.3108-.5347l-.1409.141zm1.4517.593c.5675 0 1.0558-.1982 1.4478-.5933l-.1415-.1404c-.3532.3561-.79.5344-1.3063.5344v.1993zm1.4475-.593c.3962-.396.5954-.9045.5954-1.512h-.1993c0 .5599-.1818 1.016-.537 1.371l.1409.141zm.5954-1.512c0-.6086-.1992-1.117-.5954-1.5131l-.1409.141c.3552.355.537.8111.537 1.3721h.1993zm-.5951-1.5128c-.392-.3951-.8803-.59333-1.4478-.59333v.19933c.5163 0 .9531.1783 1.3063.5344l.1415-.1404zm-1.4478-.59333c-.5721 0-1.0558.19953-1.4515.59283l.1405.1414c.3579-.3557.7908-.5349 1.311-.5349v-.19933zm-1.4517.59303c-.3962.3961-.5954.9045-.5954 1.5131h.1993c0-.561.1818-1.0171.537-1.3721l-.1409-.141zm-.5954 1.5131c0 .6075.1992 1.116.5954 1.512l.1409-.141c-.3552-.355-.537-.8111-.537-1.371h-.1993z"/><path d="M67.8379 14.4449V9.42773h.7949l2.4682 3.90197h.0275l-.0275-.9655V9.42773h.652v5.01717h-.6816l-2.5847-4.0945h-.0286l.0286.9687v3.1268h-.6488v-.001z" stroke="#fff" stroke-width=".199309"/><path fill-rule="evenodd" d="M61.5372 21.7725c-1.9888 0-3.6135 1.4959-3.6135 3.5599 0 2.0472 1.6247 3.5589 3.6135 3.5589s3.6177-1.5117 3.6177-3.5589c0-2.064-1.6247-3.5599-3.6177-3.5599zm-.0001 5.7171c-1.0912 0-2.03-.8902-2.03-2.1571 0-1.2836.9388-2.1581 2.03-2.1581s2.0343.8745 2.0343 2.1581c0 1.2669-.943 2.1571-2.0343 2.1571zm-7.8842-5.7171c-1.993 0-3.6135 1.4959-3.6135 3.5599 0 2.0472 1.6205 3.5589 3.6135 3.5589s3.6135-1.5117 3.6135-3.5589c0-2.064-1.6215-3.5599-3.6135-3.5599zm0 5.7171c-1.0923 0-2.0343-.8902-2.0343-2.1571 0-1.2836.942-2.1581 2.0343-2.1581s2.0301.8745 2.0301 2.1581c0 1.2669-.9389 2.1571-2.0301 2.1571zm-9.3819-4.6259v1.5127h3.6548c-.1069.8452-.3927 1.4666-.8309 1.8997-.5334.5231-1.3643 1.1037-2.8239 1.1037-2.2491 0-4.0103-1.7941-4.0103-4.0171s1.7612-4.0171 4.0103-4.0171c1.2162 0 2.101.4697 2.7541 1.0786l1.0785-1.066c-.9145-.862-2.1295-1.5242-3.8325-1.5242-3.0843 0-5.6764 2.4803-5.6764 5.5287s2.5921 5.5287 5.6764 5.5287c1.6659 0 2.918-.5398 3.9034-1.5524 1.0076-.997 1.322-2.3988 1.322-3.5307 0-.3515-.0296-.6747-.0826-.9446H44.271h0zm38.3637 1.1725c-.2975-.796-1.2141-2.2637-3.0832-2.2637-1.8533 0-3.3944 1.4415-3.3944 3.5599 0 1.9939 1.5262 3.5589 3.5722 3.5589 1.6543 0 2.609-.997 3.0017-1.5776l-1.2278-.8086c-.4096.591-.9674.9844-1.7739.9844-.8013 0-1.376-.363-1.7443-1.0786l4.8169-1.9688-.1672-.4059zm-4.9111 1.1853c-.0412-1.3725 1.0786-2.0755 1.8809-2.0755.6287 0 1.1621.3107 1.3399.7553l-3.2208 1.3202h0zm-3.9151 3.4535h1.5834V18.2139h-1.5834V28.675zm-2.5931-6.1096h-.054c-.3556-.4163-1.0341-.7929-1.8935-.7929-1.8036 0-3.4526 1.5649-3.4526 3.5714 0 1.9949 1.649 3.5474 3.4526 3.5474.8594 0 1.5379-.3798 1.8935-.8087h.054v.5105c0 1.361-.7356 2.0922-1.9232 2.0922-.9663 0-1.5675-.6904-1.8152-1.271l-1.3759.568c.3969.9436 1.4479 2.1048 3.1911 2.1048 1.8565 0 3.423-1.0785 3.423-3.7063V21.989h-1.5009v.5764h.0011zm-1.811 4.9242c-1.0912 0-2.0047-.9028-2.0047-2.1456 0-1.2543.9135-2.1696 2.0047-2.1696 1.0753 0 1.9242.9153 1.9242 2.1696-.0011 1.2428-.8489 2.1456-1.9242 2.1456zm20.6435-9.2757h-3.787V28.675h1.5802v-3.9637h2.2079c1.7538 0 3.4737-1.2543 3.4737-3.2493s-1.7252-3.2481-3.4748-3.2481h0zm.0413 5.0421H87.84v-3.5871h2.2492c1.179 0 1.8522.9676 1.8522 1.793 0 .8097-.6732 1.7941-1.8522 1.7941zm9.7618-1.5031c-1.141 0-2.3275.498-2.8154 1.6016l1.4013.5806c.3006-.5806.8563-.7689 1.4416-.7689.8205 0 1.6515.4854 1.6625 1.3453v.1099c-.286-.1632-.897-.4049-1.6498-.4049-1.5093 0-3.0472.8212-3.0472 2.3538 0 1.4028 1.2362 2.3046 2.6259 2.3046 1.0631 0 1.6491-.4739 2.0171-1.0252h.054v.8086h1.525v-4.0129c.002-1.8547-1.4-2.8925-3.215-2.8925zm-.1905 5.7325c-.5165 0-1.2363-.2531-1.2363-.886 0-.8097.8976-1.1204 1.6748-1.1204.695 0 1.021.1506 1.443.3515-.123.9687-.967 1.6549-1.8815 1.6549zm8.9635-5.5035l-1.815 4.536h-.054l-1.876-4.536h-1.703l2.819 6.3384-1.609 3.5254h1.65l4.345-9.8638h-1.757zM94.3895 28.675h1.5834V18.2139h-1.5834V28.675z"/></g><path d="M12.6808 9.87708c-.2488.25732-.3927.65692-.3927 1.17692v18.5078c0 .5188.1439.9195.3927 1.1769l.0614.0564 10.4932-10.3669v-.2448L12.7422 9.81641l-.0614.06067z" fill="url(#A)"/><path d="M26.7282 23.8862l-3.4938-3.4574v-.2448l3.4981-3.4574.0783.0449 4.1427 2.3297c1.1822.6612 1.1822 1.7491 0 2.4145l-4.1427 2.3255-.0826.045z" fill="url(#B)"/><path d="M26.8117 23.8415l-3.5764-3.5349-10.5546 10.4329c.3926.408 1.033.4572 1.7612.0492l12.3698-6.9472" fill="url(#C)"/><path d="M26.8117 16.7711L14.4419 9.82388c-.7282-.4038-1.3686-.35464-1.7612.05335L23.2353 20.3059l3.5764-3.5348z" fill="url(#D)"/><defs><linearGradient id="A" x1="-138.422" y1="-49.0145" x2="-159.391" y2="-43.371" gradientUnits="userSpaceOnUse"><stop stop-color="#00a0ff"/><stop offset=".0066" stop-color="#00a1ff"/><stop offset=".2601" stop-color="#00beff"/><stop offset=".5122" stop-color="#00d2ff"/><stop offset=".7604" stop-color="#00dfff"/><stop offset="1" stop-color="#00e3ff"/></linearGradient><linearGradient id="B" x1="-123.676" y1="-33.1074" x2="-149.283" y2="-33.1074" gradientUnits="userSpaceOnUse"><stop stop-color="#ffe000"/><stop offset=".4087" stop-color="#ffbd00"/><stop offset=".7754" stop-color="orange"/><stop offset="1" stop-color="#ff9c00"/></linearGradient><linearGradient id="C" x1="-153.956" y1="-36.7379" x2="-170.523" y2="-8.52086" gradientUnits="userSpaceOnUse"><stop stop-color="#ff3a44"/><stop offset="1" stop-color="#c31162"/></linearGradient><linearGradient id="D" x1="-160.122" y1="-28.062" x2="-152.726" y2="-15.4565" gradientUnits="userSpaceOnUse"><stop stop-color="#32a071"/><stop offset=".0685" stop-color="#2da771"/><stop offset=".4762" stop-color="#15cf74"/><stop offset=".8009" stop-color="#06e775"/><stop offset="1" stop-color="#00f076"/></linearGradient></defs></svg>