<?xml version="1.0" encoding="utf-8"?>
<!-- Generator: Adobe Illustrator 26.0.0, SVG Export Plug-In . SVG Version: 6.00 Build 0)  -->
<svg version="1.1" id="Layer_1" xmlns="http://www.w3.org/2000/svg" xmlns:xlink="http://www.w3.org/1999/xlink" x="0px" y="0px"
	 viewBox="0 0 1920 250" style="enable-background:new 0 0 1920 250;" xml:space="preserve">
<style type="text/css">
	.st0{fill:#001D37;}
	.st1{clip-path:url(#SVGID_00000052076041894632090970000004424307013497262769_);}
	.st2{fill:#EC1C24;}
	.st3{fill-rule:evenodd;clip-rule:evenodd;fill:#F1F1F2;}
</style>
<rect class="st0" width="1920" height="250"/>
<g>
	<defs>
		<rect id="SVGID_1_" x="811.8" y="-158.7" width="1108.2" height="408.7"/>
	</defs>
	<clipPath id="SVGID_00000040536749613186488090000004885106986324902037_">
		<use xlink:href="#SVGID_1_"  style="overflow:visible;"/>
	</clipPath>
	<g style="clip-path:url(#SVGID_00000040536749613186488090000004885106986324902037_);">
		<path class="st2" d="M2032,148.7c0-82.1-65.2-148.6-145.8-148.6c-80.5,0-145.7,66.6-145.7,148.6s65.2,148.7,145.7,148.7
			C1966.7,297.4,2032,230.8,2032,148.7z"/>
	</g>
</g>
<path class="st3" d="M1661,226.5c-4.7-3.7-3.4-1.8-6.3-2.9c-2.6-0.8-10.6-2.4-10.8-5.3c-0.5-2.9-0.5-1.3-3.4,0.5
	c-2.9,1.9-4.2,0.5-7.1,0.5c-2.9,0-15.3-4.2-17.7-7.1c3.2,9.5,7.1,17.1,14.7,17.1s8.2-0.5,11.1,0c1.5,0.3,2.8,1.1,3.7,2.4
	c4.7,0,7.1,1.8,11.9,4c5,1.8,0.5,2.4,2.4,3.7c2.1,1.6,5.3,1.6,6.8-1.1c1.3-2.4,1.3-6.6,2.9-8.9c4.2-3.7,9.5-8.7,13.4-6.6l-0.5-2.1
	c6.1-0.3,3.7-1.3,7.6,1.1c3.7,2.4,12.9,4.2,18.5,1.8c5.8-2.4,14.5-10.8,14.5-10.8c-7.1,1.9-11.1,3.2-11.1,3.2l0.5-3.2
	c-6.3,2.4-14.7,2.7-19.5,2.7c-5,0-12.9-1.9-17.4,0c-4.2,1.7-7.9,4.5-10.5,8.2C1663.8,225.2,1660.9,226.6,1661,226.5L1661,226.5z"/>
<path class="st3" d="M1696.3,135.3c-2.9-5.8-6.3-7.1-11.1-7.7c-4.8-0.5-3.7,0.8-3.7,0.8c1.8,1.6,2.4,0.5,5.3,2.4
	c2.7,2.1,6.1,5,7.1,8.2c0.8,3.4-1.1,4,1.3,5.3c2.4,1.6,7.1,2.4,9.2,4c1.9,1.3,1.9-1.1,1.9-1.1c-1.1-2.4-4.7-5.8-3.4-9
	c1.6-3.4,2.9-4.7,5.3-6.3c2.4-1.3,1.6,0,4.2-1.1c4-1.2,7.5-3.5,10.3-6.6c-1.3-1.4-3.1-2.3-5-2.4c-2.2-1.1-4.9-1.1-7.1,0
	C1706.9,123.7,1696.3,135.3,1696.3,135.3L1696.3,135.3z"/>
<path class="st3" d="M1765.6,156.2c-1.8-6.3-2.9-4.7-6.8-5.8c-3.7-1-5.5-2.4-8.4-2.4c-2.9,0-2.9-2.9-5.3-1.3
	c-2.4,1.3-10,1.8-14.5,1.8c4,3.7,3.4,7.1,8.2,7.1c4.7,0,10-2.4,12.1-2.9c1.8-0.5,7.9,0.5,7.6,4c-0.5,3.2,0,5.5,0.3,7.6
	c0.5,1.8,2.4,3.7,5.3,4.2c2.9,0.5,9.2-1.1,10-6.6c4-2.1,5.3-5.3,8.2-6.9c1.8-0.8,3.8-1.3,5.8-1.3c0,0,10.6-4.8,12.4-6.3
	c1.8-1.3,6.3-2.9,7.1-1.3c1.1,1.3,4.5,2.9,4.8,4.2c0.5,1.6,4.5,1.6,8.2,1.1c-1.8-2.1-3.2-4.5-4.2-5.8s-3.5-4.7-6.6-5.3
	c-3.4-0.5-3.9-1-5.8-1.3c-1.8-0.5-5.3-0.5-11.6,2.6c-6,3.4-9,3.4-11.3,6.3C1778.6,150.8,1765.7,156.1,1765.6,156.2L1765.6,156.2z"/>
<path class="st3" d="M1834.4,201.7c-3.2-6.3-1.3-5.3-5.5-6.3c-4.5-0.8-10.3-2.4-12.1-2.4s-8.2-2.4-10-1.8s-13.5,4.2-16.4,4.2
	c5.3,2.9,14,4.7,18.7,4.5c4,2.6,13.5,5.3,16.3,5.5c2.9,0.5,3.4,2.1,3.4,2.1c0,4.2,1.3,7.1,3.7,6.6s6.3-1,7.6-3.4
	c4.8-0.5,7.6-0.8,10.5-2.9c2.9-1.8,6.6-4.2,11.1-7.1c4.2-2.9,9-7.6,11.3-8.9c-4.2-1.6-6.1-1.9-8.2-1.1c-1.8,1.1-4.8,2.9-4.8,2.9
	s-0.5-1-3.7-0.5c-3.4,0.5-8.7,0.5-12.9,2.4c-4.5,2.1-4.7,2.1-6.3,3.9C1836.6,200.4,1835.6,201.2,1834.4,201.7L1834.4,201.7z"/>
<path class="st3" d="M1682.8,88.6c0.6-0.7,1.1-1.5,1.8-2.4c-2,0.5-3.8,1-5.5,1.4c0-0.1-0.1-0.2-0.2-0.4c1.5-0.8,2.9-1.7,4.4-2.6
	c-0.1-0.1-0.1-0.2-0.2-0.2l-6.2,1.2c-0.1-0.3-0.2-0.5-0.3-0.8l6.1-2.9l-8.2,0.4c0-0.2,0-0.3-0.1-0.5c3-0.9,6.4-0.6,9.3-2.6
	c-2.9-0.4-5.7-0.1-8-2.1c3.8,0,7.3,0,10.8,0c0-0.2,0-0.4,0.1-0.6c-2.1-0.4-4.3-0.6-6-2.2c2.1-0.1,4.1-0.2,6-0.3
	c2.9-0.2,5.7-1.3,7.9-3.2c1.5-1.3,3.2-2.3,4.8-3.3c-0.9-2.2-1.9-4.6-2.9-7l0.5-0.3c2.3,1.1,4.7,2.3,7.2,3.5c2-5.2,6.1-9.2,9.5-13.5
	c1.9-2.4,3-5.2,4.3-8c-0.1,1.1-0.3,2.2-0.4,3.3l0.4,0.1c1.3-3.2,2.6-6.4,3.9-9.6l0.8,0.2c0.3,3.3-0.8,6.4-0.9,9.8
	c0.8-1.6,1.7-3.2,2.6-5.1c1.6,2.9-0.2,5.2-0.9,7.8l2.8-1.2c0.2,0.1,0.3,0.2,0.4,0.3c-0.8,1.7-1.5,3.5-2.3,5.2l1.8-0.5l0.4,0.4
	c-1,1.4-2.1,2.8-3.1,4.2c0.5,0.1,1,0.2,1.6,0.3c-0.2,0.5-0.5,1-0.7,1.6c-0.2,0.8-0.6,1.6-0.9,2.4c-0.7,1.2-1.7,2.3-2.4,3.5
	c-0.3,0.5-0.6,1.1-0.8,1.7c-0.1,0.2-0.1,0.6-0.2,0.7c-2.2,1.1-1.5,4-4.5,4.9c1.9,0.4,3.3,0.7,4.7,1c2.4,0.7,3,1.3,2.9,3.7
	c0.1,1.4-0.3,2.8-1.2,3.9c-0.9,1.2-1.5,2.6-2.2,4.1l-2.6-1.2c0.2,0.4,0.3,0.7,0.4,1c0.8,1.8-0.4,3-2.5,2.8c-0.6-0.1-1.3-0.1-1.9,0
	c-1,0.3-2.2,0.1-3-0.5c-0.5-0.3-1.1-0.3-1.6-0.2c-1.2,0.3-1.7-0.1-1.8-1.1c-0.1-0.9,0-1.8-0.1-2.7c-0.1-0.9-0.1-1.8-0.2-3.1
	c-2.9,3.3-6.8,4.3-10.3,5.8c-1.8,0.7-4.1,0.7-5.9,1.9c-0.1,0.1-0.2,0.1-0.3,0.1C1687.4,87,1685.2,87.9,1682.8,88.6z"/>
</svg>
