<?xml version="1.0" encoding="utf-8"?>
<!-- Generator: Adobe Illustrator 26.0.0, SVG Export Plug-In . SVG Version: 6.00 Build 0)  -->
<svg version="1.1" id="Layer_1" xmlns="http://www.w3.org/2000/svg" xmlns:xlink="http://www.w3.org/1999/xlink" x="0px" y="0px"
	 viewBox="0 0 222 94" style="enable-background:new 0 0 222 94;" xml:space="preserve">
<style type="text/css">
	.st0{fill:#ED1C24;}
	.st1{fill-rule:evenodd;clip-rule:evenodd;fill:#F1F2F2;}
	.st2{fill-rule:evenodd;clip-rule:evenodd;fill:#FFFFFF;}
	.st3{fill:#FFFFFF;}
</style>
<g>
	<path class="st0" d="M137.1,44.5c0-11.7-9.3-21.2-20.8-21.2c-11.5,0-20.8,9.5-20.8,21.2c0,11.7,9.3,21.2,20.8,21.2
		C127.8,65.7,137.1,56.2,137.1,44.5z"/>
	<g>
		<path class="st1" d="M108.8,56c-0.6-0.5-0.4-0.2-0.8-0.4c-0.3-0.1-1.3-0.3-1.3-0.6c-0.1-0.4-0.1-0.2-0.4,0.1
			c-0.4,0.2-0.5,0.1-0.9,0.1c-0.4,0-1.9-0.5-2.2-0.9c0.4,1.2,0.9,2.1,1.8,2.1c0.9,0,1-0.1,1.4,0c0.3,0.1,0.5,0.3,0.5,0.3
			c0.6,0,0.9,0.2,1.5,0.5c0.6,0.2,0.1,0.3,0.3,0.5c0.3,0.2,0.6,0.2,0.8-0.1c0.2-0.3,0.2-0.8,0.4-1.1c0.5-0.5,1.2-1.1,1.6-0.8
			l-0.1-0.3c0.7,0,0.5-0.2,0.9,0.1c0.5,0.3,1.6,0.5,2.3,0.2c0.7-0.3,1.8-1.3,1.8-1.3c-0.9,0.2-1.4,0.4-1.4,0.4l0.1-0.4
			c-0.8,0.3-1.8,0.3-2.4,0.3c-0.6,0-1.6-0.2-2.1,0c-0.8,0.3-1.2,0.8-1.3,1C109.1,55.8,108.8,56,108.8,56L108.8,56z"/>
		<path class="st1" d="M113.1,44.8c-0.4-0.7-0.8-0.9-1.4-0.9c-0.6-0.1-0.5,0.1-0.5,0.1c0.2,0.2,0.3,0.1,0.6,0.3
			c0.3,0.3,0.7,0.6,0.9,1c0.1,0.4-0.1,0.5,0.2,0.6c0.3,0.2,0.9,0.3,1.1,0.5c0.2,0.2,0.2-0.1,0.2-0.1c-0.1-0.3-0.6-0.7-0.4-1.1
			c0.2-0.4,0.4-0.6,0.6-0.8c0.3-0.2,0.2,0,0.5-0.1c0.4-0.1,0.9-0.4,1.3-0.8c-0.3-0.3-0.6-0.3-0.6-0.3s-0.4-0.2-0.9,0
			C114.4,43.4,113.1,44.8,113.1,44.8L113.1,44.8z"/>
		<path class="st1" d="M121.6,47.4c-0.2-0.8-0.4-0.6-0.8-0.7c-0.5-0.1-0.7-0.3-1-0.3c-0.4,0-0.4-0.4-0.6-0.2
			c-0.3,0.2-1.2,0.2-1.8,0.2c0.5,0.5,0.4,0.9,1,0.9c0.6,0,1.2-0.3,1.5-0.4c0.2-0.1,1,0.1,0.9,0.5c-0.1,0.4,0,0.7,0,0.9
			c0.1,0.2,0.3,0.5,0.6,0.5c0.4,0.1,1.1-0.1,1.2-0.8c0.5-0.3,0.6-0.6,1-0.8c0.4-0.2,0.7-0.2,0.7-0.2s1.3-0.6,1.5-0.8
			c0.2-0.2,0.8-0.4,0.9-0.2c0.1,0.2,0.6,0.4,0.6,0.5c0.1,0.2,0.6,0.2,1,0.1c-0.2-0.3-0.4-0.6-0.5-0.7c-0.1-0.2-0.4-0.6-0.8-0.6
			c-0.4-0.1-0.5-0.1-0.7-0.2c-0.2-0.1-0.6-0.1-1.4,0.3c-0.7,0.4-1.1,0.4-1.4,0.8C123.2,46.7,121.6,47.4,121.6,47.4L121.6,47.4z"/>
		<path class="st1" d="M130.1,53c-0.4-0.8-0.2-0.6-0.7-0.8c-0.5-0.1-1.3-0.3-1.5-0.3c-0.2,0-1-0.3-1.2-0.2c-0.2,0.1-1.7,0.5-2,0.5
			c0.6,0.4,1.7,0.6,2.3,0.6c0.5,0.3,1.7,0.6,2,0.7c0.4,0.1,0.4,0.3,0.4,0.3c0,0.5,0.2,0.9,0.5,0.8c0.3-0.1,0.8-0.1,0.9-0.4
			c0.6-0.1,0.9-0.1,1.3-0.4c0.4-0.2,0.8-0.5,1.4-0.9c0.5-0.4,1.1-0.9,1.4-1.1c-0.5-0.2-0.7-0.2-1-0.1c-0.2,0.1-0.6,0.4-0.6,0.4
			s-0.1-0.1-0.5-0.1c-0.4,0.1-1.1,0.1-1.6,0.3c-0.6,0.3-0.6,0.3-0.8,0.5C130.3,52.9,130.1,53,130.1,53L130.1,53z"/>
	</g>
	<path class="st2" d="M111.4,39.1c0.1-0.1,0.1-0.2,0.2-0.3c-0.2,0.1-0.5,0.1-0.7,0.2c0,0,0,0,0,0c0.2-0.1,0.4-0.2,0.5-0.3
		c0,0,0,0,0,0c-0.3,0-0.5,0.1-0.8,0.1c0,0,0-0.1,0-0.1c0.2-0.1,0.5-0.2,0.8-0.4c-0.4,0-0.7,0-1,0c0,0,0,0,0-0.1
		c0.4-0.1,0.8-0.1,1.1-0.3c-0.4-0.1-0.7,0-1-0.3c0.5,0,0.9,0,1.3,0c0,0,0,0,0-0.1c-0.3-0.1-0.5-0.1-0.7-0.3c0.3,0,0.5,0,0.7,0
		c0.4,0,0.7-0.2,1-0.4c0.2-0.2,0.4-0.3,0.6-0.4c-0.1-0.3-0.2-0.6-0.4-0.9c0,0,0,0,0.1,0c0.3,0.1,0.6,0.3,0.9,0.4
		c0.2-0.6,0.8-1.1,1.2-1.7c0.2-0.3,0.4-0.6,0.5-1c0,0.1,0,0.3-0.1,0.4c0,0,0,0,0.1,0c0.2-0.4,0.3-0.8,0.5-1.2c0,0,0.1,0,0.1,0
		c0,0.4-0.1,0.8-0.1,1.2c0.1-0.2,0.2-0.4,0.3-0.6c0.2,0.4,0,0.6-0.1,1c0.1-0.1,0.2-0.1,0.3-0.1c0,0,0,0,0.1,0
		c-0.1,0.2-0.2,0.4-0.3,0.6c0.1,0,0.1,0,0.2-0.1c0,0,0,0,0,0c-0.1,0.2-0.3,0.3-0.4,0.5c0.1,0,0.1,0,0.2,0c0,0.1-0.1,0.1-0.1,0.2
		c0,0.1-0.1,0.2-0.1,0.3c-0.1,0.1-0.2,0.3-0.3,0.4c0,0.1-0.1,0.1-0.1,0.2c0,0,0,0.1,0,0.1c-0.3,0.1-0.2,0.5-0.6,0.6
		c0.2,0.1,0.4,0.1,0.6,0.1c0.3,0.1,0.4,0.2,0.4,0.4c0,0.2,0,0.3-0.1,0.5c-0.1,0.1-0.2,0.3-0.3,0.5c-0.1,0-0.2-0.1-0.3-0.1
		c0,0.1,0,0.1,0,0.1c0.1,0.2,0,0.4-0.3,0.3c-0.1,0-0.2,0-0.2,0c-0.1,0-0.3,0-0.4-0.1c0,0-0.1,0-0.2,0c-0.1,0-0.2,0-0.2-0.1
		c0-0.1,0-0.2,0-0.3c0-0.1,0-0.2,0-0.4c-0.4,0.4-0.8,0.5-1.3,0.7c-0.2,0.1-0.5,0.1-0.7,0.2c0,0,0,0,0,0
		C112,38.9,111.7,39,111.4,39.1z"/>
</g>
<g>
	<path class="st3" d="M56.8,50.7c-0.9,0-1.7,0.3-2.4,1c-0.3,0.3-0.6,0.6-0.8,1c-0.2,0.4-0.3,0.8-0.3,1.3c0,0.9,0.2,1.7,0.7,2.2
		c-0.8-0.1-1.6-0.3-2.2-0.7c-0.7-0.4-1.2-1.1-1.7-1.9c-0.4-0.9-0.8-2-1-3.3c-0.2-1.3-0.3-2.9-0.3-4.8c0-1.8,0.3-3.5,0.9-5.1
		c0.6-1.6,1.5-3.1,2.7-4.5c0.6-0.7,1.4-1.4,2.2-2c0.8-0.6,1.7-1.1,2.6-1.5c0.9-0.4,1.8-0.7,2.8-1c0.9-0.2,1.9-0.3,2.7-0.4
		c-0.1-0.1-0.4-0.3-0.7-0.6c-0.3-0.3-0.6-0.6-1-1c-0.4-0.4-0.8-0.8-1.2-1.2H39.4c0.1,0.1,0.1,0.1,0.1,0.2l-0.4,0l-0.8-1.8l-2.1-1.6
		l-0.1,5.5c-0.1-0.2-0.2-0.3-0.3-0.4c-0.1-0.1-0.1-0.2-0.2-0.2h0.1c-0.3-0.4-0.8-0.7-1.3-0.9c-0.2-0.1-0.4-0.1-0.5-0.2l-0.4-0.4
		l-4.6-0.1l-0.7-1.8L26.1,25v10.8v0.1c-0.8-1.3-1.8-2.6-2.9-3.8c-2.3-2.5-4.8-3.7-7.5-3.7c-1.2,0-2.4,0.2-3.5,0.5
		c-1.1,0.4-2.2,0.9-3.2,1.6c-1.1,0.8-2,1.7-2.6,2.6s-0.9,2.1-0.9,3.3c0,0.5,0,0.9,0.1,1.3c0.1,0.4,0.2,0.7,0.4,1
		c0.2,0.3,0.5,0.5,0.8,0.7c0.3,0.2,0.7,0.2,1.2,0.2c0.3-0.2,0.6-0.4,0.9-0.5c0.3-0.1,0.5-0.3,0.8-0.5c0.5-0.3,0.9-0.4,1.3-0.4
		c0.3,0,0.5,0.1,0.7,0.2c0.2,0.1,0.4,0.3,0.6,0.6c0.4,0.6,0.6,1.2,0.6,1.8c0,0.2-0.1,0.5-0.2,0.7c-0.1,0.3-0.3,0.6-0.6,1
		c-0.3,0.4-0.7,0.8-1.2,1.4C10.4,44.4,9.8,45,9,45.7l5,1.7c2.4-2.5,4.4-4.6,6-6.3c1.6-1.7,2.7-3,3.6-3.9c0.8,1.1,1.4,2.1,1.8,3.1
		c0.4,1,0.6,1.9,0.6,2.9c0,0.1,0,1.2-0.1,3.5c0,1.4-0.1,3.3-0.2,5.6c-0.7-0.6-1.4-1.2-2.1-1.5c-0.8-0.4-1.7-0.6-2.6-0.6
		c-0.2,0-0.5,0-0.9,0.1c-0.4,0-0.9,0.1-1.6,0.1c-0.6,0-1.2,0-1.7,0c-0.5,0-0.9,0-1.3,0c-3.1,0-5.4-0.3-6.9-1
		c-1.6-0.7-2.5-1.6-2.9-2.8l0.2-2.1l-2-2.6c-0.1,0.8-0.3,1.4-0.4,2c-0.1,0.6-0.2,1-0.2,1.4C3.1,45.5,3,45.8,3,46.1
		c0,0.3,0,0.6,0,0.8c0,1.3,0.3,2.4,0.9,3.4c0.6,1,1.5,1.7,2.6,2.4c1.1,0.6,2.5,1.1,4.1,1.4c1.6,0.3,3.5,0.4,5.6,0.4
		c0.4,0,0.9,0,1.4,0c0.5,0,1,0,1.6-0.1c0.5,0,1-0.1,1.3-0.1c0.3,0,0.6,0,0.8,0c1.2,0,2.2,0.2,3,0.6c0.3,0.1,0.5,0.3,0.8,0.5
		c0.2,0.1,0.3,0.2,0.5,0.4c0,0.3,0,0.5,0,0.8l3.8,3.3c0-0.4,0-1.1,0-2c0-0.9,0-2,0-3.2c0-0.6,0-1.3,0-1.9v-2.1c0,0,0,0,0,0
		c0-1.5,0-3,0-4.5c0-1.5,0-3.1,0-4.6c0-1.5,0-2.9,0-4.2c0-1.3,0-2.5,0-3.5c0-1,0-1.8,0-2.3l2.5,0l0.1,0.1h1.6
		c0.2,0.1,0.4,0.2,0.6,0.3c0.1,0.1,0.3,0.2,0.3,0.3c0.1,0.1,0.2,0.3,0.4,0.5c0.2,0.3,0.4,0.6,0.7,1.1c0.1,0.2,0.2,0.4,0.3,0.5
		c0.1,0.1,0.2,0.3,0.2,0.5c0.1,0.4,0.2,1.1,0.2,2.1l-0.3,19.8c0.5,0.3,1,0.6,1.5,0.8c0.4,0.2,0.8,0.4,1.2,0.6
		c0.4,0.2,0.7,0.3,0.9,0.4c0-0.2,0-0.7,0-1.5c0-0.8,0-1.7,0-2.8c0-1.1,0-2.4,0-3.8c0-1.4,0-2.8,0-4.3c0-1.5,0-3,0-4.5
		c0-1.5,0-2.9,0-4.2c0-1.3,0-2.5,0-3.5c0-1,0-1.8,0-2.4l6.8,0.1L46,31.5h5.3c-1.7,1.4-3,3.2-4.2,5.2c-0.8,1.3-1.3,2.6-1.7,4
		C45.2,42,45,43.4,45,44.9c0,1.8,0.2,3.5,0.5,5.1c0.4,1.6,0.9,3,1.7,4.3c1.8,3.2,4.6,4.9,8.2,4.9c1.2,0,2.4-0.4,3.4-1.2
		c1.1-0.9,1.6-2,1.6-3.3c0-1.2-0.3-2.2-0.9-2.9C58.9,51.1,58,50.7,56.8,50.7z M17.6,36.8c-0.8,0.9-1.5,1.6-2.1,2.3
		c-0.1-0.8-0.4-1.4-0.7-2c-0.3-0.6-0.8-1-1.5-1.4c-0.3-0.2-0.6-0.4-1-0.5c-0.3-0.1-0.7-0.3-1-0.4c0.2-0.3,0.5-0.6,0.9-0.9
		c0.3-0.3,0.7-0.5,1.2-0.8c1-0.5,2.1-0.8,3.2-0.8c1.1,0,2.4,0.5,3.7,1.4C19.3,34.9,18.3,35.9,17.6,36.8z"/>
	<path class="st3" d="M81.6,28.3l-0.7-1.8L78.7,25l0.1,10.3c-1-2.2-2.2-4-3.6-5.2c-1.4-1.2-3-1.8-4.8-1.8c-2.6,0-4.7,1-6.3,3
		c-0.7,0.9-1.3,1.9-1.6,3C62.2,35.5,62,36.7,62,38c0,1.2,0.2,2.4,0.5,3.4c0.3,1,0.8,2,1.4,2.8c0.7,0.9,1.6,1.6,2.6,2.1
		c1,0.4,2.1,0.7,3.4,0.7c1.3,0,2.4-0.4,3.4-1.3c0.5-0.5,0.9-0.9,1.2-1.5c0.3-0.5,0.4-1.1,0.4-1.8c0-1.1-0.3-2-1-2.9
		c-0.7-0.9-1.6-1.3-2.6-1.3c-0.9,0-1.7,0.3-2.3,0.9c-0.3,0.3-0.6,0.6-0.8,1c-0.2,0.4-0.2,0.8-0.2,1.3c0,0.1,0,0.3,0,0.4
		s0,0.2,0.1,0.4c-0.3-0.2-0.6-0.5-0.9-0.9c-0.2-0.4-0.4-0.8-0.4-1.3c-0.1-0.5-0.1-1-0.1-1.5c0-1.7,0.4-3,1.1-4
		c0.4-0.5,0.9-0.9,1.4-1.2c0.6-0.3,1.2-0.4,2-0.4c0.9,0,1.9,0.3,2.7,0.9c0.9,0.6,1.7,1.6,2.6,2.8c0.7,1.2,1.3,2.3,1.7,3.5
		c0.4,1.1,0.6,2.2,0.6,3.4c0,0.1-0.1,4.6-0.4,13.3c0.3,0.3,0.6,0.6,0.9,0.9c0.3,0.3,0.6,0.5,0.9,0.8c0.3,0.2,0.6,0.5,0.9,0.7
		c0.3,0.3,0.7,0.5,1.1,0.9c0-0.6,0-1.3,0-2.3c0-1,0-2.1,0-3.4c0-1.3,0-2.6,0-4.1c0-1.5,0-3,0-4.5c0-1.5,0-3,0-4.4c0-1.5,0-2.8,0-4.1
		c0-1.3,0-2.4,0-3.4c0-1,0-1.7,0-2.3l0.9,0l0,0l4.7,0l1.9,0l0,0l12.2,0v1.4c-2.6,0.7-5.3,1.7-8.1,3.3c-2.7,1.5-5.6,3.5-8.7,6
		l3.4,4.1c1.6,0.1,3.1,0.4,4.6,1c1.5,0.6,3,1.5,4.5,2.7c1.6,1.2,2.8,2.5,3.6,3.8c0.8,1.3,1.4,2.7,1.6,4.2l2.3,2l0.1-28.4l7.3,0.1
		l-3.2-3.3H81.6z M101.6,50.2c-0.6-0.8-1.2-1.5-1.9-2.1c-0.7-0.7-1.4-1.3-2.2-1.8c-0.6-0.4-1.4-0.9-2.4-1.4c-1-0.5-2.2-1.2-3.6-1.9
		c3.5-2.5,6.8-4.2,10.1-5.3V50.2z"/>
	<path class="st3" d="M94,52.1c-0.4,0-0.9,0.1-1.3,0.3c-0.4,0.2-0.7,0.4-1.1,0.7c-0.6,0.6-0.9,1.4-0.9,2.4c0,0.4,0.1,0.9,0.2,1.2
		c0.1,0.4,0.4,0.7,0.7,1c0.7,0.6,1.4,0.9,2.3,0.9c0.4,0,0.9-0.1,1.3-0.2c0.4-0.2,0.7-0.4,1-0.7c0.3-0.3,0.6-0.7,0.7-1.1
		c0.1-0.4,0.2-0.8,0.2-1.2c0-0.9-0.3-1.7-1-2.4C95.7,52.4,94.9,52.1,94,52.1z"/>
	<path class="st3" d="M154.2,46.2c0-1.5,0-3,0-4.5c0-1.5,0-2.9,0-4.2c0-1.3,0-2.5,0-3.5c0-1,0-1.8,0-2.4l6.8,0.1l-3.2-3.2l-3.9-0.1
		l-0.8-1.8l-2.1-1.6l-0.1,5.5c-0.1-0.2-0.2-0.3-0.3-0.4c-0.1-0.1-0.1-0.2-0.2-0.2h0.1c-0.3-0.4-0.8-0.7-1.3-0.9
		c-0.2-0.1-0.4-0.2-0.7-0.2l-0.4-0.4H119l3.3,3.2h18.5v1.4c-2.6,0.7-5.2,1.7-8,3.3c-2.8,1.5-5.7,3.5-8.8,6l3.5,4.1
		c1.7,0.1,3.2,0.4,4.7,1c1.5,0.6,2.9,1.5,4.4,2.7c2.8,2.3,4.6,4.9,5.3,8l2.2,2l0.1-28.5l2.3,0l0.1,0.1h1.6c0.2,0.1,0.4,0.2,0.6,0.3
		c0.1,0.1,0.3,0.2,0.3,0.3c0.1,0.1,0.2,0.3,0.4,0.5c0.2,0.3,0.4,0.6,0.7,1.1c0.1,0.2,0.2,0.4,0.3,0.5c0.1,0.1,0.2,0.3,0.2,0.5
		c0.1,0.4,0.2,1.1,0.2,2.1l-0.3,19.8c0.5,0.3,1,0.6,1.5,0.8c0.4,0.2,0.8,0.4,1.2,0.6c0.4,0.2,0.7,0.3,0.9,0.4c0-0.2,0-0.7,0-1.5
		c0-0.8,0-1.7,0-2.8c0-1.1,0-2.4,0-3.8C154.2,49.1,154.2,47.7,154.2,46.2z M140.9,50.1c-0.6-0.8-1.2-1.5-1.8-2.2
		c-0.7-0.6-1.4-1.2-2.2-1.8c-0.6-0.4-1.4-0.9-2.5-1.5c-1-0.5-2.3-1.1-3.7-1.8c1.8-1.2,3.5-2.3,5.2-3.2c1.7-0.9,3.3-1.6,5-2.1V50.1z"
		/>
	<path class="st3" d="M166.6,41.9c0.8,0,1.6-0.1,2.3-0.4c0.7-0.3,1.4-0.7,2-1.3c1.2-1.2,1.8-2.7,1.8-4.4c0-1.7-0.6-3.1-1.8-4.4
		c-1.2-1.2-2.6-1.8-4.4-1.8c-1.7,0-3.1,0.6-4.4,1.8c-1.2,1.2-1.8,2.6-1.8,4.4c0,0.8,0.1,1.6,0.4,2.4c0.3,0.7,0.7,1.4,1.3,2
		C163.4,41.3,164.9,41.9,166.6,41.9z M163.9,35.9c0.2-0.5,0.7-1,1.3-1.6c0.6-0.6,1.2-1,1.7-1.2c0.5-0.2,0.9-0.4,1.3-0.4
		c0.2,0,0.4,0,0.6,0.1c0.1,0.1,0.3,0.2,0.5,0.3c0.3,0.3,0.5,0.7,0.5,1.1c0,0.3-0.1,0.7-0.4,1.2c-0.3,0.4-0.7,1-1.4,1.6
		c-0.7,0.6-1.2,1.1-1.7,1.3c-0.5,0.2-0.9,0.4-1.2,0.4c-0.2,0-0.4,0-0.5-0.1c-0.2-0.1-0.3-0.2-0.5-0.4c-0.4-0.3-0.5-0.7-0.5-1.1
		C163.6,36.8,163.7,36.4,163.9,35.9z"/>
	<path class="st3" d="M172.4,53.9c-1.2-1.4-2.4-2.7-3.6-4c-1.2-1.3-2.5-2.5-3.7-3.7c-1.3-1.2-2.6-2.3-4-3.5v5.9
		c1.3,1,2.6,1.9,3.9,2.9c1.3,1,2.5,2.1,3.8,3.2c1.3,1.2,2.5,2.4,3.8,3.7c1.3,1.3,2.7,2.8,4.1,4.4l-0.8-4.8
		C174.7,56.7,173.5,55.3,172.4,53.9z"/>
	<path class="st3" d="M212.4,46.2c0-1.5,0-3,0-4.5c0-1.5,0-2.9,0-4.2c0-1.3,0-2.5,0-3.5c0-1,0-1.8,0-2.4l6.8,0.1l-3.2-3.2l-3.9-0.1
		l-0.8-1.8l-2.1-1.6l-0.1,5.5c-0.1-0.2-0.2-0.3-0.3-0.4c-0.1-0.1-0.1-0.2-0.2-0.2h0.1c-0.3-0.4-0.8-0.7-1.3-0.9
		c-0.2-0.1-0.3-0.1-0.5-0.2l-0.5-0.5h-33.9l3.3,3.2H199v5.6c-0.6-1-1.3-1.8-2-2.3c-0.7-0.6-1.4-0.9-2.2-0.9c-0.6,0-1.1,0.2-1.6,0.5
		c-0.5,0.3-0.9,0.7-1.3,1.3c-0.2,0.2-0.4,0.5-0.5,0.8c-0.2,0.3-0.3,0.6-0.4,0.9c-0.9-1.1-1.9-2-2.8-2.6c-1-0.6-1.9-0.9-2.9-0.9
		c-1.1,0-2.1,0.2-3.1,0.6c-0.9,0.4-1.7,1-2.4,1.8c-0.6,0.8-1.1,1.7-1.4,2.6c-0.3,1-0.5,2-0.5,3.1c0,2.3,0.6,4.3,1.9,6
		c1.4,1.8,3.2,2.7,5.5,2.7c1.4,0,2.6-0.4,3.6-1.1c1.2-0.8,1.8-1.9,1.8-3.3c0-0.9-0.3-1.8-1-2.6c-0.3-0.4-0.7-0.8-1.2-1
		c-0.4-0.2-0.9-0.3-1.4-0.3c-0.9,0-1.8,0.3-2.5,1c-0.8,0.7-1.2,1.5-1.2,2.4c0,0.4,0,0.8,0.1,1.1c0.1,0.3,0.2,0.7,0.5,1
		c-0.3-0.1-0.6-0.2-1-0.4c-0.3-0.2-0.6-0.5-0.9-0.9c-0.3-0.5-0.6-1-0.7-1.4c-0.1-0.5-0.2-1-0.2-1.4c0-1.5,0.4-2.7,1.3-3.7
		c0.9-1.1,2.1-1.6,3.4-1.6c1.5,0,2.7,0.4,3.8,1.3c1.1,0.8,1.9,2.2,2.6,4l2,1.1c0-1.2,0-2.1,0-3c0-0.8,0.1-1.5,0.2-2
		c0.1-0.5,0.2-0.9,0.4-1.2c0.2-0.2,0.4-0.4,0.8-0.4c0.4,0,0.8,0.2,1.2,0.5c0.4,0.3,0.8,0.8,1.1,1.6c0.5,1.2,0.8,2.4,0.8,3.8V57
		c0.5,0.4,0.9,0.8,1.3,1.1c0.4,0.3,0.7,0.5,1.1,0.7c0.4,0.2,0.6,0.3,0.8,0.3l0.1-27.6l2.3,0l0.1,0.1h1.6c0.2,0.1,0.4,0.2,0.6,0.3
		c0.1,0.1,0.3,0.2,0.4,0.3c0.1,0.1,0.2,0.3,0.4,0.5c0.2,0.3,0.4,0.6,0.7,1.1c0.1,0.2,0.2,0.4,0.3,0.5c0.1,0.1,0.2,0.3,0.2,0.5
		c0.1,0.4,0.2,1.1,0.2,2.1l-0.3,19.8c0.5,0.3,1,0.6,1.5,0.8c0.4,0.2,0.8,0.4,1.2,0.6c0.4,0.2,0.7,0.3,0.9,0.4c0-0.2,0-0.7,0-1.5
		c0-0.8,0-1.7,0-2.8c0-1.1,0-2.4,0-3.8C212.4,49.1,212.4,47.7,212.4,46.2z"/>
</g>
</svg>
