<?xml version="1.0" encoding="utf-8"?>
<!-- Generator: Adobe Illustrator 26.0.0, SVG Export Plug-In . SVG Version: 6.00 Build 0)  -->
<svg version="1.1" id="Layer_1" xmlns="http://www.w3.org/2000/svg" xmlns:xlink="http://www.w3.org/1999/xlink" x="0px" y="0px"
	 viewBox="0 0 223 54" style="enable-background:new 0 0 223 54;" xml:space="preserve">
<style type="text/css">
	.st0{fill:#EC1C24;}
	.st1{fill:#F7F7F7;}
	.st2{fill-rule:evenodd;clip-rule:evenodd;fill:#F1F1F2;}
	.st3{fill-rule:evenodd;clip-rule:evenodd;fill:#FFFFFF;}
</style>
<path class="st0" d="M137.4,28.3c0-11.7-9.3-21.2-20.8-21.2s-20.8,9.5-20.8,21.2s9.3,21.2,20.8,21.2C128.1,49.5,137.4,40,137.4,28.3
	z"/>
<g>
	<path class="st1" d="M57.2,34.5c-0.9,0-1.7,0.3-2.4,1c-0.3,0.3-0.6,0.6-0.8,1s-0.3,0.8-0.3,1.3c0,0.9,0.2,1.7,0.7,2.2
		c-0.8-0.1-1.6-0.3-2.2-0.7c-0.7-0.4-1.2-1.1-1.7-1.9c-0.4-0.9-0.8-2-1-3.3s-0.3-2.9-0.3-4.8c0-1.8,0.3-3.5,0.9-5.1
		c0.6-1.6,1.5-3.1,2.7-4.5c0.6-0.7,1.4-1.4,2.2-2s1.7-1.1,2.6-1.5c0.9-0.4,1.8-0.7,2.8-1c0.9-0.2,1.9-0.3,2.7-0.4
		c-0.1-0.1-0.4-0.3-0.7-0.6s-0.6-0.6-1-1s-0.8-0.8-1.2-1.2H39.7c0.1,0.1,0.1,0.1,0.1,0.2h-0.4l-0.8-1.8l-2.1-1.6l-0.1,5.5
		c-0.1-0.2-0.2-0.3-0.3-0.4c-0.1-0.1-0.1-0.2-0.2-0.2H36c-0.3-0.4-0.8-0.7-1.3-0.9c-0.2-0.1-0.4-0.1-0.5-0.2l-0.4-0.4l-4.6-0.1
		l-0.7-1.8l-2.1-1.5v10.8v0.1c-0.8-1.3-1.8-2.6-2.9-3.8c-2.3-2.5-4.8-3.7-7.5-3.7c-1.2,0-2.4,0.2-3.5,0.5c-1.1,0.4-2.2,0.9-3.2,1.6
		c-1.1,0.8-2,1.7-2.6,2.6c-0.6,0.9-0.9,2.1-0.9,3.3c0,0.5,0,0.9,0.1,1.3s0.2,0.7,0.4,1c0.2,0.3,0.5,0.5,0.8,0.7s0.7,0.2,1.2,0.2
		c0.3-0.2,0.6-0.4,0.9-0.5c0.3-0.1,0.5-0.3,0.8-0.5c0.5-0.3,0.9-0.4,1.3-0.4c0.3,0,0.5,0.1,0.7,0.2s0.4,0.3,0.6,0.6
		c0.4,0.6,0.6,1.2,0.6,1.8c0,0.2-0.1,0.5-0.2,0.7c-0.1,0.3-0.3,0.6-0.6,1s-0.7,0.8-1.2,1.4c-0.5,0.5-1.1,1.1-1.9,1.8l5,1.7
		c2.4-2.5,4.4-4.6,6-6.3s2.7-3,3.6-3.9c0.8,1.1,1.4,2.1,1.8,3.1s0.6,1.9,0.6,2.9c0,0.1,0,1.2-0.1,3.5c0,1.4-0.1,3.3-0.2,5.6
		c-0.7-0.6-1.4-1.2-2.1-1.5c-0.8-0.4-1.7-0.6-2.6-0.6c-0.2,0-0.5,0-0.9,0.1c-0.4,0-0.9,0.1-1.6,0.1c-0.6,0-1.2,0-1.7,0s-0.9,0-1.3,0
		c-3.1,0-5.4-0.3-6.9-1c-1.6-0.7-2.5-1.6-2.9-2.8l0.2-2.1l-2-2.6c-0.1,0.8-0.3,1.4-0.4,2c-0.1,0.6-0.2,1-0.2,1.4
		c-0.1,0.4-0.1,0.8-0.1,1.1c0,0.3,0,0.6,0,0.8c0,1.3,0.3,2.4,0.9,3.4s1.5,1.7,2.6,2.4c1.1,0.6,2.5,1.1,4.1,1.4
		c1.6,0.3,3.5,0.4,5.6,0.4c0.4,0,0.9,0,1.4,0s1,0,1.6-0.1c0.5,0,1-0.1,1.3-0.1s0.6,0,0.8,0c1.2,0,2.2,0.2,3,0.6
		c0.3,0.1,0.5,0.3,0.8,0.5c0.2,0.1,0.3,0.2,0.5,0.4c0,0.3,0,0.5,0,0.8l3.8,3.3c0-0.4,0-1.1,0-2s0-2,0-3.2c0-0.6,0-1.3,0-1.9v-2.1
		l0,0c0-1.5,0-3,0-4.5s0-3.1,0-4.6s0-2.9,0-4.2s0-2.5,0-3.5s0-1.8,0-2.3h2.5l0.1,0.1h1.6c0.2,0.1,0.4,0.2,0.6,0.3
		c0.1,0.1,0.3,0.2,0.3,0.3c0.1,0.1,0.2,0.3,0.4,0.5c0.2,0.3,0.4,0.6,0.7,1.1c0.1,0.2,0.2,0.4,0.3,0.5s0.2,0.3,0.2,0.5
		c0.1,0.4,0.2,1.1,0.2,2.1l-0.3,19.8c0.5,0.3,1,0.6,1.5,0.8c0.4,0.2,0.8,0.4,1.2,0.6c0.4,0.2,0.7,0.3,0.9,0.4c0-0.2,0-0.7,0-1.5
		s0-1.7,0-2.8s0-2.4,0-3.8c0-1.4,0-2.8,0-4.3s0-3,0-4.5s0-2.9,0-4.2c0-1.3,0-2.5,0-3.5s0-1.8,0-2.4l6.8,0.1l-0.2-0.2H52
		c-1.7,1.4-3,3.2-4.2,5.2c-0.8,1.3-1.3,2.6-1.7,4c-0.3,1.4-0.5,2.8-0.5,4.2c0,1.8,0.2,3.5,0.5,5.1c0.4,1.6,0.9,3,1.7,4.3
		c1.8,3.2,4.6,4.9,8.2,4.9c1.2,0,2.4-0.4,3.4-1.2c1.1-0.9,1.6-2,1.6-3.3c0-1.2-0.3-2.2-0.9-2.9C59.3,34.9,58.4,34.5,57.2,34.5z
		 M17.9,20.5c-0.8,0.9-1.5,1.6-2.1,2.3c-0.1-0.8-0.4-1.4-0.7-2s-0.8-1-1.5-1.4c-0.3-0.2-0.6-0.4-1-0.5c-0.3-0.1-0.7-0.3-1-0.4
		c0.2-0.3,0.5-0.6,0.9-0.9c0.3-0.3,0.7-0.5,1.2-0.8c1-0.5,2.1-0.8,3.2-0.8s2.4,0.5,3.7,1.4C19.6,18.7,18.7,19.7,17.9,20.5z"/>
	<path class="st1" d="M81.9,12.1l-0.7-1.8L79,8.8l0.1,10.3c-1-2.2-2.2-4-3.6-5.2s-3-1.8-4.8-1.8c-2.6,0-4.7,1-6.3,3
		c-0.7,0.9-1.3,1.9-1.6,3s-0.5,2.3-0.5,3.6c0,1.2,0.2,2.4,0.5,3.4s0.8,2,1.4,2.8c0.7,0.9,1.6,1.6,2.6,2.1c1,0.4,2.1,0.7,3.4,0.7
		s2.4-0.4,3.4-1.3c0.5-0.5,0.9-0.9,1.2-1.5c0.3-0.5,0.4-1.1,0.4-1.8c0-1.1-0.3-2-1-2.9s-1.6-1.3-2.6-1.3c-0.9,0-1.7,0.3-2.3,0.9
		c-0.3,0.3-0.6,0.6-0.8,1c-0.2,0.4-0.2,0.8-0.2,1.3c0,0.1,0,0.3,0,0.4s0,0.2,0.1,0.4c-0.3-0.2-0.6-0.5-0.9-0.9
		c-0.2-0.4-0.4-0.8-0.4-1.3c-0.1-0.5-0.1-1-0.1-1.5c0-1.7,0.4-3,1.1-4c0.4-0.5,0.9-0.9,1.4-1.2c0.6-0.3,1.2-0.4,2-0.4
		c0.9,0,1.9,0.3,2.7,0.9c0.9,0.6,1.7,1.6,2.6,2.8c0.7,1.2,1.3,2.3,1.7,3.5c0.4,1.1,0.6,2.2,0.6,3.4c0,0.1-0.1,4.6-0.4,13.3
		c0.3,0.3,0.6,0.6,0.9,0.9c0.3,0.3,0.6,0.5,0.9,0.8c0.3,0.2,0.6,0.5,0.9,0.7c0.3,0.3,0.7,0.5,1.1,0.9c0-0.6,0-1.3,0-2.3s0-2.1,0-3.4
		c0-1.3,0-2.6,0-4.1s0-3,0-4.5s0-3,0-4.4c0-1.5,0-2.8,0-4.1c0-1.3,0-2.4,0-3.4s0-1.7,0-2.3h0.9l0,0h4.7H90l0,0h12.2v1.4
		c-2.6,0.7-5.3,1.7-8.1,3.3c-2.7,1.5-5.6,3.5-8.7,6l3.4,4.1c1.6,0.1,3.1,0.4,4.6,1s3,1.5,4.5,2.7c1.6,1.2,2.8,2.5,3.6,3.8
		c0.8,1.3,1.4,2.7,1.6,4.2l2.3,2l0.1-28.4l7.3,0.1l-3.2-3.3H81.9V12.1z M102,33.9c-0.6-0.8-1.2-1.5-1.9-2.1
		c-0.7-0.7-1.4-1.3-2.2-1.8c-0.6-0.4-1.4-0.9-2.4-1.4s-2.2-1.2-3.6-1.9c3.5-2.5,6.8-4.2,10.1-5.3V33.9z"/>
	<path class="st1" d="M94.4,35.9c-0.4,0-0.9,0.1-1.3,0.3s-0.7,0.4-1.1,0.7c-0.6,0.6-0.9,1.4-0.9,2.4c0,0.4,0.1,0.9,0.2,1.2
		c0.1,0.4,0.4,0.7,0.7,1c0.7,0.6,1.4,0.9,2.3,0.9c0.4,0,0.9-0.1,1.3-0.2c0.4-0.2,0.7-0.4,1-0.7s0.6-0.7,0.7-1.1
		c0.1-0.4,0.2-0.8,0.2-1.2c0-0.9-0.3-1.7-1-2.4C96,36.2,95.3,35.9,94.4,35.9z"/>
	<path class="st1" d="M154.5,30c0-1.5,0-3,0-4.5s0-2.9,0-4.2c0-1.3,0-2.5,0-3.5s0-1.8,0-2.4l6.8,0.1l-3.2-3.2l-3.9-0.1l-0.8-1.8
		l-2.1-1.6l-0.1,5.5c-0.1-0.2-0.2-0.3-0.3-0.4c-0.1-0.1-0.1-0.2-0.2-0.2h0.1c-0.3-0.4-0.8-0.7-1.3-0.9c-0.2-0.1-0.4-0.2-0.7-0.2
		l-0.4-0.4h-29.2l3.3,3.2H141v1.4c-2.6,0.7-5.2,1.7-8,3.3c-2.8,1.5-5.7,3.5-8.8,6l3.5,4.1c1.7,0.1,3.2,0.4,4.7,1s2.9,1.5,4.4,2.7
		c2.8,2.3,4.6,4.9,5.3,8l2.2,2l0.1-28.5h2.3l0.1,0.1h1.6c0.2,0.1,0.4,0.2,0.6,0.3c0.1,0.1,0.3,0.2,0.3,0.3c0.1,0.1,0.2,0.3,0.4,0.5
		c0.2,0.3,0.4,0.6,0.7,1.1c0.1,0.2,0.2,0.4,0.3,0.5s0.2,0.3,0.2,0.5c0.1,0.4,0.2,1.1,0.2,2.1L151,40.6c0.5,0.3,1,0.6,1.5,0.8
		c0.4,0.2,0.8,0.4,1.2,0.6c0.4,0.2,0.7,0.3,0.9,0.4c0-0.2,0-0.7,0-1.5s0-1.7,0-2.8s0-2.4,0-3.8C154.5,32.9,154.5,31.5,154.5,30z
		 M141.2,33.9c-0.6-0.8-1.2-1.5-1.8-2.2c-0.7-0.6-1.4-1.2-2.2-1.8c-0.6-0.4-1.4-0.9-2.5-1.5c-1-0.5-2.3-1.1-3.7-1.8
		c1.8-1.2,3.5-2.3,5.2-3.2c1.7-0.9,3.3-1.6,5-2.1V33.9z"/>
	<path class="st1" d="M166.9,25.7c0.8,0,1.6-0.1,2.3-0.4s1.4-0.7,2-1.3c1.2-1.2,1.8-2.7,1.8-4.4c0-1.7-0.6-3.1-1.8-4.4
		c-1.2-1.2-2.6-1.8-4.4-1.8c-1.7,0-3.1,0.6-4.4,1.8c-1.2,1.2-1.8,2.6-1.8,4.4c0,0.8,0.1,1.6,0.4,2.4c0.3,0.7,0.7,1.4,1.3,2
		C163.7,25.1,165.2,25.7,166.9,25.7z M164.3,19.7c0.2-0.5,0.7-1,1.3-1.6s1.2-1,1.7-1.2s0.9-0.4,1.3-0.4c0.2,0,0.4,0,0.6,0.1
		c0.1,0.1,0.3,0.2,0.5,0.3c0.3,0.3,0.5,0.7,0.5,1.1c0,0.3-0.1,0.7-0.4,1.2c-0.3,0.4-0.7,1-1.4,1.6s-1.2,1.1-1.7,1.3
		c-0.5,0.2-0.9,0.4-1.2,0.4c-0.2,0-0.4,0-0.5-0.1c-0.2-0.1-0.3-0.2-0.5-0.4c-0.4-0.3-0.5-0.7-0.5-1.1
		C163.9,20.6,164,20.2,164.3,19.7z"/>
	<path class="st1" d="M172.7,37.7c-1.2-1.4-2.4-2.7-3.6-4c-1.2-1.3-2.5-2.5-3.7-3.7c-1.3-1.2-2.6-2.3-4-3.5v5.9
		c1.3,1,2.6,1.9,3.9,2.9c1.3,1,2.5,2.1,3.8,3.2c1.3,1.2,2.5,2.4,3.8,3.7s2.7,2.8,4.1,4.4l-0.8-4.8C175.1,40.5,173.9,39.1,172.7,37.7
		z"/>
	<path class="st1" d="M212.7,30c0-1.5,0-3,0-4.5s0-2.9,0-4.2c0-1.3,0-2.5,0-3.5s0-1.8,0-2.4l6.8,0.1l-3.2-3.2l-3.9-0.1l-0.8-1.8
		l-2.1-1.6l-0.1,5.5c-0.1-0.2-0.2-0.3-0.3-0.4c-0.1-0.1-0.1-0.2-0.2-0.2h0.1c-0.3-0.4-0.8-0.7-1.3-0.9c-0.2-0.1-0.3-0.1-0.5-0.2
		l-0.5-0.5h-33.9l3.3,3.2h23.2v5.6c-0.6-1-1.3-1.8-2-2.3c-0.7-0.6-1.4-0.9-2.2-0.9c-0.6,0-1.1,0.2-1.6,0.5s-0.9,0.7-1.3,1.3
		c-0.2,0.2-0.4,0.5-0.5,0.8c-0.2,0.3-0.3,0.6-0.4,0.9c-0.9-1.1-1.9-2-2.8-2.6c-1-0.6-1.9-0.9-2.9-0.9c-1.1,0-2.1,0.2-3.1,0.6
		c-0.9,0.4-1.7,1-2.4,1.8c-0.6,0.8-1.1,1.7-1.4,2.6c-0.3,1-0.5,2-0.5,3.1c0,2.3,0.6,4.3,1.9,6c1.4,1.8,3.2,2.7,5.5,2.7
		c1.4,0,2.6-0.4,3.6-1.1c1.2-0.8,1.8-1.9,1.8-3.3c0-0.9-0.3-1.8-1-2.6c-0.3-0.4-0.7-0.8-1.2-1c-0.4-0.2-0.9-0.3-1.4-0.3
		c-0.9,0-1.8,0.3-2.5,1c-0.8,0.7-1.2,1.5-1.2,2.4c0,0.4,0,0.8,0.1,1.1c0.1,0.3,0.2,0.7,0.5,1c-0.3-0.1-0.6-0.2-1-0.4
		c-0.3-0.2-0.6-0.5-0.9-0.9c-0.3-0.5-0.6-1-0.7-1.4c-0.1-0.5-0.2-1-0.2-1.4c0-1.5,0.4-2.7,1.3-3.7c0.9-1.1,2.1-1.6,3.4-1.6
		c1.5,0,2.7,0.4,3.8,1.3c1.1,0.8,1.9,2.2,2.6,4l2,1.1c0-1.2,0-2.1,0-3c0-0.8,0.1-1.5,0.2-2c0.1-0.5,0.2-0.9,0.4-1.2
		c0.2-0.2,0.4-0.4,0.8-0.4c0.4,0,0.8,0.2,1.2,0.5s0.8,0.8,1.1,1.6c0.5,1.2,0.8,2.4,0.8,3.8v12.8c0.5,0.4,0.9,0.8,1.3,1.1
		c0.4,0.3,0.7,0.5,1.1,0.7c0.4,0.2,0.6,0.3,0.8,0.3l0.1-27.6h2.3l0.1,0.1h1.6c0.2,0.1,0.4,0.2,0.6,0.3c0.1,0.1,0.3,0.2,0.4,0.3
		c0.1,0.1,0.2,0.3,0.4,0.5c0.2,0.3,0.4,0.6,0.7,1.1c0.1,0.2,0.2,0.4,0.3,0.5s0.2,0.3,0.2,0.5c0.1,0.4,0.2,1.1,0.2,2.1l-0.3,19.8
		c0.5,0.3,1,0.6,1.5,0.8c0.4,0.2,0.8,0.4,1.2,0.6c0.4,0.2,0.7,0.3,0.9,0.4c0-0.2,0-0.7,0-1.5s0-1.7,0-2.8s0-2.4,0-3.8
		C212.7,32.9,212.7,31.5,212.7,30z"/>
</g>
<g>
	<path class="st2" d="M109.1,39.8c-0.6-0.5-0.4-0.2-0.8-0.4c-0.3-0.1-1.3-0.3-1.3-0.6c-0.1-0.4-0.1-0.2-0.4,0.1
		c-0.4,0.2-0.5,0.1-0.9,0.1s-1.9-0.5-2.2-0.9c0.4,1.2,0.9,2.1,1.8,2.1s1-0.1,1.4,0c0.3,0.1,0.5,0.3,0.5,0.3c0.6,0,0.9,0.2,1.5,0.5
		c0.6,0.2,0.1,0.3,0.3,0.5c0.3,0.2,0.6,0.2,0.8-0.1c0.2-0.3,0.2-0.8,0.4-1.1c0.5-0.5,1.2-1.1,1.6-0.8l-0.1-0.3
		c0.7,0,0.5-0.2,0.9,0.1c0.5,0.3,1.6,0.5,2.3,0.2c0.7-0.3,1.8-1.3,1.8-1.3c-0.9,0.2-1.4,0.4-1.4,0.4l0.1-0.4
		c-0.8,0.3-1.8,0.3-2.4,0.3s-1.6-0.2-2.1,0c-0.8,0.3-1.2,0.8-1.3,1C109.5,39.6,109.1,39.8,109.1,39.8L109.1,39.8z"/>
	<path class="st2" d="M113.4,28.6c-0.4-0.7-0.8-0.9-1.4-0.9c-0.6-0.1-0.5,0.1-0.5,0.1c0.2,0.2,0.3,0.1,0.6,0.3
		c0.3,0.3,0.7,0.6,0.9,1c0.1,0.4-0.1,0.5,0.2,0.6c0.3,0.2,0.9,0.3,1.1,0.5s0.2-0.1,0.2-0.1c-0.1-0.3-0.6-0.7-0.4-1.1
		s0.4-0.6,0.6-0.8c0.3-0.2,0.2,0,0.5-0.1c0.4-0.1,0.9-0.4,1.3-0.8c-0.3-0.3-0.6-0.3-0.6-0.3s-0.4-0.2-0.9,0
		C114.7,27.2,113.4,28.6,113.4,28.6L113.4,28.6z"/>
	<path class="st2" d="M121.9,31.2c-0.2-0.8-0.4-0.6-0.8-0.7c-0.5-0.1-0.7-0.3-1-0.3c-0.4,0-0.4-0.4-0.6-0.2
		c-0.3,0.2-1.2,0.2-1.8,0.2c0.5,0.5,0.4,0.9,1,0.9s1.2-0.3,1.5-0.4c0.2-0.1,1,0.1,0.9,0.5s0,0.7,0,0.9c0.1,0.2,0.3,0.5,0.6,0.5
		c0.4,0.1,1.1-0.1,1.2-0.8c0.5-0.3,0.6-0.6,1-0.8c0.4-0.2,0.7-0.2,0.7-0.2s1.3-0.6,1.5-0.8c0.2-0.2,0.8-0.4,0.9-0.2
		c0.1,0.2,0.6,0.4,0.6,0.5c0.1,0.2,0.6,0.2,1,0.1c-0.2-0.3-0.4-0.6-0.5-0.7c-0.1-0.2-0.4-0.6-0.8-0.6c-0.4-0.1-0.5-0.1-0.7-0.2
		s-0.6-0.1-1.4,0.3c-0.7,0.4-1.1,0.4-1.4,0.8C123.5,30.5,121.9,31.2,121.9,31.2L121.9,31.2z"/>
	<path class="st2" d="M130.4,36.7c-0.4-0.8-0.2-0.6-0.7-0.8c-0.5-0.1-1.3-0.3-1.5-0.3s-1-0.3-1.2-0.2s-1.7,0.5-2,0.5
		c0.6,0.4,1.7,0.6,2.3,0.6c0.5,0.3,1.7,0.6,2,0.7c0.4,0.1,0.4,0.3,0.4,0.3c0,0.5,0.2,0.9,0.5,0.8c0.3-0.1,0.8-0.1,0.9-0.4
		c0.6-0.1,0.9-0.1,1.3-0.4c0.4-0.2,0.8-0.5,1.4-0.9c0.5-0.4,1.1-0.9,1.4-1.1c-0.5-0.2-0.7-0.2-1-0.1c-0.2,0.1-0.6,0.4-0.6,0.4
		s-0.1-0.1-0.5-0.1c-0.4,0.1-1.1,0.1-1.6,0.3c-0.6,0.3-0.6,0.3-0.8,0.5C130.6,36.7,130.4,36.7,130.4,36.7L130.4,36.7z"/>
</g>
<path class="st3" d="M111.8,22.9c0.1-0.1,0.1-0.2,0.2-0.3c-0.2,0.1-0.5,0.1-0.7,0.2l0,0c0.2-0.1,0.4-0.2,0.5-0.3l0,0
	c-0.3,0-0.5,0.1-0.8,0.1v-0.1c0.2-0.1,0.5-0.2,0.8-0.4c-0.4,0-0.7,0-1,0c0,0,0,0,0-0.1c0.4-0.1,0.8-0.1,1.1-0.3
	c-0.4-0.1-0.7,0-1-0.3c0.5,0,0.9,0,1.3,0c0,0,0,0,0-0.1c-0.3-0.1-0.5-0.1-0.7-0.3c0.3,0,0.5,0,0.7,0c0.4,0,0.7-0.2,1-0.4
	c0.2-0.2,0.4-0.3,0.6-0.4c-0.1-0.3-0.2-0.6-0.4-0.9c0,0,0,0,0.1,0c0.3,0.1,0.6,0.3,0.9,0.4c0.2-0.6,0.8-1.1,1.2-1.7
	c0.2-0.3,0.4-0.6,0.5-1c0,0.1,0,0.3-0.1,0.4c0,0,0,0,0.1,0c0.2-0.4,0.3-0.8,0.5-1.2h0.1c0,0.4-0.1,0.8-0.1,1.2
	c0.1-0.2,0.2-0.4,0.3-0.6c0.2,0.4,0,0.6-0.1,1c0.1-0.1,0.2-0.1,0.3-0.1c0,0,0,0,0.1,0c-0.1,0.2-0.2,0.4-0.3,0.6c0.1,0,0.1,0,0.2-0.1
	l0,0c-0.1,0.2-0.3,0.3-0.4,0.5c0.1,0,0.1,0,0.2,0c0,0.1-0.1,0.1-0.1,0.2s-0.1,0.2-0.1,0.3c-0.1,0.1-0.2,0.3-0.3,0.4
	c0,0.1-0.1,0.1-0.1,0.2v0.1c-0.3,0.1-0.2,0.5-0.6,0.6c0.2,0.1,0.4,0.1,0.6,0.1c0.3,0.1,0.4,0.2,0.4,0.4c0,0.2,0,0.3-0.1,0.5
	c-0.1,0.1-0.2,0.3-0.3,0.5c-0.1,0-0.2-0.1-0.3-0.1c0,0.1,0,0.1,0,0.1c0.1,0.2,0,0.4-0.3,0.3c-0.1,0-0.2,0-0.2,0
	c-0.1,0-0.3,0-0.4-0.1c0,0-0.1,0-0.2,0s-0.2,0-0.2-0.1s0-0.2,0-0.3c0-0.1,0-0.2,0-0.4c-0.4,0.4-0.8,0.5-1.3,0.7
	c-0.2,0.1-0.5,0.1-0.7,0.2l0,0C112.3,22.7,112.1,22.8,111.8,22.9z"/>
</svg>
