<svg id="Layer_1" data-name="Layer 1" xmlns="http://www.w3.org/2000/svg" viewBox="0 0 222 94"><defs><style>.cls-1{fill:#ed1c24;}.cls-2{fill:#f1f2f2;}.cls-2,.cls-3{fill-rule:evenodd;}.cls-3{fill:#fff;}</style></defs><path class="cls-1" d="M137.1,44.5a20.8,20.8,0,1,0-20.8,21.2A21,21,0,0,0,137.1,44.5Z"/><path class="cls-2" d="M108.8,56c-.6-.5-.4-.2-.8-.4s-1.3-.3-1.3-.6-.1-.2-.4.1-.5.1-.9.1a4.69,4.69,0,0,1-2.2-.9c.4,1.2.9,2.1,1.8,2.1a6.09,6.09,0,0,1,1.4,0,1.41,1.41,0,0,1,.5.3,3,3,0,0,1,1.5.5c.6.2.1.3.3.5a.52.52,0,0,0,.8-.1c.2-.3.2-.8.4-1.1.5-.5,1.2-1.1,1.6-.8l-.1-.3c.7,0,.5-.2.9.1a3,3,0,0,0,2.3.2,9.28,9.28,0,0,0,1.8-1.3,10,10,0,0,0-1.4.4l.1-.4a7.16,7.16,0,0,1-2.4.3,7.38,7.38,0,0,0-2.1,0,2.45,2.45,0,0,0-1.3,1c-.2.1-.5.3-.5.3Z"/><path class="cls-2" d="M113.1,44.8a1.45,1.45,0,0,0-1.4-.9c-.6-.1-.5.1-.5.1.2.2.3.1.6.3a4.3,4.3,0,0,1,.9,1c.1.4-.1.5.2.6s.9.3,1.1.5.2-.1.2-.1c-.1-.3-.6-.7-.4-1.1a2.76,2.76,0,0,1,.6-.8c.3-.2.2,0,.5-.1a3.07,3.07,0,0,0,1.3-.8.93.93,0,0,0-.6-.3,1.17,1.17,0,0,0-.9,0c-.3.2-1.6,1.6-1.6,1.6Z"/><path class="cls-2" d="M121.6,47.4c-.2-.8-.4-.6-.8-.7s-.7-.3-1-.3-.4-.4-.6-.2a4.7,4.7,0,0,1-1.8.2c.5.5.4.9,1,.9a4.58,4.58,0,0,0,1.5-.4c.2-.1,1,.1.9.5a2.64,2.64,0,0,0,0,.9c.1.2.3.5.6.5a1,1,0,0,0,1.2-.8c.5-.3.6-.6,1-.8a1.73,1.73,0,0,1,.7-.2,11.55,11.55,0,0,0,1.5-.8c.2-.2.8-.4.9-.2s.6.4.6.5.6.2,1,.1a6.82,6.82,0,0,0-.5-.7,1,1,0,0,0-.8-.6,3.1,3.1,0,0,1-.7-.2c-.2-.1-.6-.1-1.4.3s-1.1.4-1.4.8a6.27,6.27,0,0,1-1.9,1.2Z"/><path class="cls-2" d="M130.1,53c-.4-.8-.2-.6-.7-.8s-1.3-.3-1.5-.3-1-.3-1.2-.2a11.7,11.7,0,0,1-2,.5,4.93,4.93,0,0,0,2.3.6,12.12,12.12,0,0,0,2,.7c.4.1.4.3.4.3,0,.5.2.9.5.8s.8-.1.9-.4a2.5,2.5,0,0,0,1.3-.4,15.14,15.14,0,0,0,1.4-.9c.5-.4,1.1-.9,1.4-1.1a1.23,1.23,0,0,0-1-.1,5.92,5.92,0,0,0-.6.4s-.1-.1-.5-.1a11,11,0,0,0-1.6.3c-.6.3-.6.3-.8.5a1.44,1.44,0,0,1-.3.2Z"/><path class="cls-3" d="M111.4,39.1c.1-.1.1-.2.2-.3-.2.1-.5.1-.7.2h0a2.19,2.19,0,0,0,.5-.3h0c-.3,0-.5.1-.8.1v-.1a5.9,5.9,0,0,0,.8-.4h-1v-.1a3.54,3.54,0,0,0,1.1-.3c-.4-.1-.7,0-1-.3h1.3v-.1c-.3-.1-.5-.1-.7-.3h.7a1.78,1.78,0,0,0,1-.4,2.09,2.09,0,0,1,.6-.4,3.55,3.55,0,0,0-.4-.9h.1c.3.1.6.3.9.4a8.85,8.85,0,0,1,1.2-1.7,3.13,3.13,0,0,0,.5-1,.6.6,0,0,1-.1.4h.1c.2-.4.3-.8.5-1.2h.1c0,.4-.1.8-.1,1.2l.3-.6c.2.4,0,.6-.1,1a.37.37,0,0,1,.3-.1h.1l-.3.6c.1,0,.1,0,.2-.1h0c-.1.2-.3.3-.4.5h.2c0,.1-.1.1-.1.2s-.1.2-.1.3-.2.3-.3.4-.1.1-.1.2v.1c-.3.1-.2.5-.6.6a1.27,1.27,0,0,0,.6.1c.3.1.4.2.4.4a.9.9,0,0,1-.1.5,2.19,2.19,0,0,0-.3.5c-.1,0-.2-.1-.3-.1v.1c.1.2,0,.4-.3.3h-.2a.6.6,0,0,1-.4-.1h-.2c-.1,0-.2,0-.2-.1v-.7a3.29,3.29,0,0,1-1.3.7c-.2.1-.5.1-.7.2h0A1.59,1.59,0,0,1,111.4,39.1Z"/><path d="M56.8,50.7a3.25,3.25,0,0,0-2.4,1,3.92,3.92,0,0,0-.8,1,2.77,2.77,0,0,0-.3,1.3,3.07,3.07,0,0,0,.7,2.2,5.19,5.19,0,0,1-2.2-.7,5.28,5.28,0,0,1-1.7-1.9,12.89,12.89,0,0,1-1-3.3,32.3,32.3,0,0,1-.3-4.8,14.4,14.4,0,0,1,.9-5.1,15,15,0,0,1,2.7-4.5,14.16,14.16,0,0,1,2.2-2,13.5,13.5,0,0,1,2.6-1.5,23.07,23.07,0,0,1,2.8-1c.9-.2,1.9-.3,2.7-.4-.1-.1-.4-.3-.7-.6l-1-1-1.2-1.2H39.4c.1.1.1.1.1.2h-.4l-.8-1.8L36.2,25l-.1,5.5a1.38,1.38,0,0,0-.3-.4c-.1-.1-.1-.2-.2-.2h.1a3,3,0,0,0-1.3-.9c-.2-.1-.4-.1-.5-.2l-.4-.4-4.6-.1-.7-1.8L26.1,25V35.9a25.51,25.51,0,0,0-2.9-3.8c-2.3-2.5-4.8-3.7-7.5-3.7a13.45,13.45,0,0,0-3.5.5A13.69,13.69,0,0,0,9,30.5a10.67,10.67,0,0,0-2.6,2.6,6,6,0,0,0-.9,3.3,5.28,5.28,0,0,0,.1,1.3,3,3,0,0,0,.4,1,2.7,2.7,0,0,0,.8.7,2.17,2.17,0,0,0,1.2.2,4.05,4.05,0,0,1,.9-.5,3.51,3.51,0,0,0,.8-.5,2.42,2.42,0,0,1,1.3-.4,1.45,1.45,0,0,1,.7.2,1.7,1.7,0,0,1,.6.6,3.23,3.23,0,0,1,.6,1.8,1.85,1.85,0,0,1-.2.7,3.74,3.74,0,0,1-.6,1c-.3.4-.7.8-1.2,1.4S9.8,45,9,45.7l5,1.7q3.6-3.75,6-6.3c1.6-1.7,2.7-3,3.6-3.9a14.49,14.49,0,0,1,1.8,3.1,7.53,7.53,0,0,1,.6,2.9c0,.1,0,1.2-.1,3.5,0,1.4-.1,3.3-.2,5.6a9.12,9.12,0,0,0-2.1-1.5,5.83,5.83,0,0,0-2.6-.6,3.44,3.44,0,0,0-.9.1c-.4,0-.9.1-1.6.1h-3c-3.1,0-5.4-.3-6.9-1a4.73,4.73,0,0,1-2.9-2.8l.2-2.1-2-2.6c-.1.8-.3,1.4-.4,2a9.32,9.32,0,0,0-.2,1.4,1.14,1.14,0,0,0-.3.8v.8a6.4,6.4,0,0,0,.9,3.4,7.55,7.55,0,0,0,2.6,2.4,14.07,14.07,0,0,0,4.1,1.4,31.31,31.31,0,0,0,5.6.4h1.4a9.15,9.15,0,0,0,1.6-.1c.5,0,1-.1,1.3-.1h.8a6.68,6.68,0,0,1,3,.6,3.51,3.51,0,0,1,.8.5,1.76,1.76,0,0,1,.5.4v.8l3.8,3.3V50.7h0V31.6h2.5l.1.1h1.6l.6.3c.1.1.3.2.3.3s.2.3.4.5.4.6.7,1.1a2.19,2.19,0,0,0,.3.5.76.76,0,0,1,.2.5,9.1,9.1,0,0,1,.2,2.1L36,56.8a10.93,10.93,0,0,0,1.5.8l1.2.6c.4.2.7.3.9.4v-27l6.8.1-.4-.2h5.3a19.58,19.58,0,0,0-4.2,5.2,15.54,15.54,0,0,0-1.7,4,27.22,27.22,0,0,0-.4,4.2,27.56,27.56,0,0,0,.5,5.1,14.86,14.86,0,0,0,1.7,4.3,9,9,0,0,0,8.2,4.9A5.43,5.43,0,0,0,58.8,58a4.07,4.07,0,0,0,1.6-3.3,4.37,4.37,0,0,0-.9-2.9A3.39,3.39,0,0,0,56.8,50.7ZM17.6,36.8c-.8.9-1.5,1.6-2.1,2.3a5.91,5.91,0,0,0-.7-2,3.42,3.42,0,0,0-1.5-1.4,3.13,3.13,0,0,0-1-.5c-.3-.1-.7-.3-1-.4a3.82,3.82,0,0,1,.9-.9,6.22,6.22,0,0,1,1.2-.8,7.22,7.22,0,0,1,3.2-.8,6.85,6.85,0,0,1,3.7,1.4C19.3,34.9,18.3,35.9,17.6,36.8Z"/><path d="M81.6,28.3l-.7-1.8L78.7,25l.1,10.3a14.94,14.94,0,0,0-3.6-5.2,7.17,7.17,0,0,0-4.8-1.8,7.68,7.68,0,0,0-6.3,3,8.7,8.7,0,0,0-1.6,3A15,15,0,0,0,62,38a12.13,12.13,0,0,0,.5,3.4,9.2,9.2,0,0,0,1.4,2.8,7.55,7.55,0,0,0,2.6,2.1,9,9,0,0,0,3.4.7,4.84,4.84,0,0,0,3.4-1.3,5.66,5.66,0,0,0,1.2-1.5,3.42,3.42,0,0,0,.4-1.8,4.45,4.45,0,0,0-1-2.9,3.31,3.31,0,0,0-4.9-.4,3.92,3.92,0,0,0-.8,1,2.74,2.74,0,0,0-.2,1.3v.4a.76.76,0,0,0,.1.4,3.82,3.82,0,0,1-.9-.9,2.84,2.84,0,0,1-.4-1.3,7.57,7.57,0,0,1-.1-1.5,6.78,6.78,0,0,1,1.1-4,5.26,5.26,0,0,1,1.4-1.2,4.21,4.21,0,0,1,2-.4,4.6,4.6,0,0,1,2.7.9,11.91,11.91,0,0,1,2.6,2.8,18.74,18.74,0,0,1,1.7,3.5,9.74,9.74,0,0,1,.6,3.4c0,.1-.1,4.6-.4,13.3l.9.9c.3.3.6.5.9.8s.6.5.9.7.7.5,1.1.9V31.6h19.7V33a33.71,33.71,0,0,0-8.1,3.3,62.31,62.31,0,0,0-8.7,6l3.4,4.1a14.58,14.58,0,0,1,4.6,1,17.9,17.9,0,0,1,4.5,2.7,14.12,14.12,0,0,1,3.6,3.8,10.77,10.77,0,0,1,1.6,4.2l2.3,2,.1-28.4,7.3.1-3.2-3.3H81.6Zm20,21.9a12.86,12.86,0,0,0-1.9-2.1,12.39,12.39,0,0,0-2.2-1.8,22.11,22.11,0,0,0-2.4-1.4c-1-.5-2.2-1.2-3.6-1.9a37.92,37.92,0,0,1,10.1-5.3Z"/><path d="M94,52.1a3.08,3.08,0,0,0-1.3.3,6.73,6.73,0,0,0-1.1.7,3.24,3.24,0,0,0-.9,2.4,4.3,4.3,0,0,0,.2,1.2,2.29,2.29,0,0,0,.7,1,3.34,3.34,0,0,0,2.3.9,5.85,5.85,0,0,0,1.3-.2,3.59,3.59,0,0,0,1-.7,2.59,2.59,0,0,0,.7-1.1,5,5,0,0,0,.2-1.2,3.25,3.25,0,0,0-1-2.4A2.45,2.45,0,0,0,94,52.1Z"/><path d="M154.2,46.2V31.6l6.8.1-3.2-3.2-3.9-.1-.8-1.8L151,25l-.1,5.5a1.38,1.38,0,0,0-.3-.4c-.1-.1-.1-.2-.2-.2h.1a3,3,0,0,0-1.3-.9,1.45,1.45,0,0,0-.7-.2l-.4-.4H119l3.3,3.2h18.5V33a33.11,33.11,0,0,0-8,3.3,57.47,57.47,0,0,0-8.8,6l3.5,4.1a14.6,14.6,0,0,1,4.7,1,17.43,17.43,0,0,1,4.4,2.7,14.39,14.39,0,0,1,5.3,8l2.2,2,.1-28.5h2.3l.1.1h1.6l.6.3c.1.1.3.2.3.3s.2.3.4.5.4.6.7,1.1a2.19,2.19,0,0,0,.3.5.76.76,0,0,1,.2.5,9.1,9.1,0,0,1,.2,2.1l-.3,19.8a10.93,10.93,0,0,0,1.5.8l1.2.6c.4.2.7.3.9.4V46.2Zm-13.3,3.9c-.6-.8-1.2-1.5-1.8-2.2s-1.4-1.2-2.2-1.8c-.6-.4-1.4-.9-2.5-1.5s-2.3-1.1-3.7-1.8c1.8-1.2,3.5-2.3,5.2-3.2a26.64,26.64,0,0,1,5-2.1Z"/><path d="M166.6,41.9a5.87,5.87,0,0,0,2.3-.4,6.25,6.25,0,0,0,2-1.3,6,6,0,0,0,1.8-4.4,6.2,6.2,0,0,0-1.8-4.4,5.88,5.88,0,0,0-4.4-1.8,6.2,6.2,0,0,0-4.4,1.8,5.88,5.88,0,0,0-1.8,4.4,6.72,6.72,0,0,0,.4,2.4,6.25,6.25,0,0,0,1.3,2A7.27,7.27,0,0,0,166.6,41.9Zm-2.7-6a5.69,5.69,0,0,1,1.3-1.6,5.35,5.35,0,0,1,1.7-1.2,3.82,3.82,0,0,1,1.3-.4,1.27,1.27,0,0,1,.6.1,2.19,2.19,0,0,0,.5.3,1.61,1.61,0,0,1,.5,1.1,2.38,2.38,0,0,1-.4,1.2A8.74,8.74,0,0,1,168,37a7.66,7.66,0,0,1-1.7,1.3,4.15,4.15,0,0,1-1.2.4.75.75,0,0,1-.5-.1,1.76,1.76,0,0,1-.5-.4,1.27,1.27,0,0,1-.5-1.1A3.46,3.46,0,0,1,163.9,35.9Z"/><path d="M172.4,53.9c-1.2-1.4-2.4-2.7-3.6-4s-2.5-2.5-3.7-3.7-2.6-2.3-4-3.5v5.9c1.3,1,2.6,1.9,3.9,2.9s2.5,2.1,3.8,3.2,2.5,2.4,3.8,3.7,2.7,2.8,4.1,4.4l-.8-4.8C174.7,56.7,173.5,55.3,172.4,53.9Z"/><path d="M212.4,46.2V31.6l6.8.1L216,28.5l-3.9-.1-.8-1.8L209.2,25l-.1,5.5a1.38,1.38,0,0,0-.3-.4c-.1-.1-.1-.2-.2-.2h.1a3,3,0,0,0-1.3-.9c-.2-.1-.3-.1-.5-.2l-.5-.5H172.5l3.3,3.2H199v5.6a7.7,7.7,0,0,0-2-2.3,3.28,3.28,0,0,0-2.2-.9,3,3,0,0,0-1.6.5,4,4,0,0,0-1.3,1.3,2.18,2.18,0,0,0-.5.8,3.55,3.55,0,0,0-.4.9,13.29,13.29,0,0,0-2.8-2.6,5.46,5.46,0,0,0-2.9-.9,8.15,8.15,0,0,0-3.1.6,6.9,6.9,0,0,0-2.4,1.8,9.39,9.39,0,0,0-1.4,2.6,10.59,10.59,0,0,0-.5,3.1,9.56,9.56,0,0,0,1.9,6,6.6,6.6,0,0,0,5.5,2.7,6.15,6.15,0,0,0,3.6-1.1,3.76,3.76,0,0,0,1.8-3.3,3.88,3.88,0,0,0-1-2.6,2.94,2.94,0,0,0-1.2-1,3.19,3.19,0,0,0-1.4-.3,3.47,3.47,0,0,0-2.5,1,3.13,3.13,0,0,0-1.2,2.4,3.75,3.75,0,0,0,.1,1.1,2.35,2.35,0,0,0,.5,1,6.89,6.89,0,0,1-1-.4,3.82,3.82,0,0,1-.9-.9,6.07,6.07,0,0,1-.7-1.4,7.84,7.84,0,0,1-.2-1.4,5.24,5.24,0,0,1,1.3-3.7,4.25,4.25,0,0,1,3.4-1.6,5.66,5.66,0,0,1,3.8,1.3,8.7,8.7,0,0,1,2.6,4l2,1.1v-3a10.31,10.31,0,0,1,.2-2,3.37,3.37,0,0,1,.4-1.2,1,1,0,0,1,.8-.4,2.08,2.08,0,0,1,1.2.5,3.44,3.44,0,0,1,1.1,1.6,9.57,9.57,0,0,1,.8,3.8V57c.5.4.9.8,1.3,1.1a6.73,6.73,0,0,0,1.1.7,2,2,0,0,0,.8.3l.1-27.6h2.3l.1.1h1.6l.6.3c.1.1.3.2.4.3s.2.3.4.5.4.6.7,1.1a2.19,2.19,0,0,0,.3.5.76.76,0,0,1,.2.5,9.1,9.1,0,0,1,.2,2.1l-.3,19.8a10.93,10.93,0,0,0,1.5.8l1.2.6c.4.2.7.3.9.4V50.4A28.17,28.17,0,0,0,212.4,46.2Z"/></svg>